<?xml version="1.0" standalone="no"?>
<!DOCTYPE svg PUBLIC "-//W3C//DTD SVG 20010904//EN"
 "http://www.w3.org/TR/2001/REC-SVG-20010904/DTD/svg10.dtd">
<svg version="1.0" xmlns="http://www.w3.org/2000/svg"
 width="1024.000000pt" height="769.000000pt" viewBox="0 0 1024.000000 769.000000"
 preserveAspectRatio="xMidYMid meet">

<g transform="translate(0.000000,769.000000) scale(0.100000,-0.100000)"
fill="#000000" stroke="none">
<path d="M5272 5270 c-43 -4 -77 -12 -81 -19 -5 -7 -12 -12 -17 -11 -28 5 -85
-13 -109 -36 -16 -14 -41 -31 -57 -36 -22 -8 -27 -15 -23 -29 4 -13 1 -19 -9
-19 -9 0 -16 -4 -16 -10 0 -5 -6 -10 -12 -10 -7 0 -26 -11 -43 -25 -24 -19
-26 -24 -12 -25 16 0 14 -7 -15 -42 -18 -23 -34 -46 -34 -50 -1 -4 -3 -9 -4
-10 -1 -2 -4 -12 -6 -23 -2 -11 -15 -54 -30 -95 -21 -61 -26 -92 -26 -162 1
-48 7 -98 13 -110 12 -22 11 -22 -7 -8 -18 14 -18 14 -4 -5 32 -40 43 -73 36
-107 -7 -41 3 -107 14 -87 4 8 11 35 14 62 7 43 26 67 26 32 0 -8 5 -15 10
-15 6 0 10 -10 10 -22 0 -12 -3 -18 -7 -15 -13 13 -33 -16 -33 -48 0 -44 9
-65 27 -65 8 0 12 -4 8 -9 -3 -6 3 -14 12 -20 17 -9 17 -11 -2 -26 -11 -8 -14
-14 -7 -13 8 2 19 -5 25 -15 10 -15 8 -21 -6 -32 -18 -13 -18 -14 2 -25 15 -7
21 -20 21 -44 0 -29 28 -124 55 -188 5 -13 -4 -21 -41 -37 -25 -12 -59 -21
-74 -21 -15 0 -49 -11 -75 -25 -26 -14 -53 -24 -59 -22 -6 3 0 10 14 16 23 11
22 11 -10 5 -19 -3 -49 -8 -66 -10 -17 -2 -69 -16 -115 -30 -46 -15 -92 -27
-101 -27 -9 -1 -15 -4 -12 -8 2 -4 -15 -14 -38 -23 -54 -20 -139 -36 -132 -25
3 5 15 9 27 10 12 0 47 9 77 19 59 21 50 20 -72 -6 l-77 -17 -68 -85 c-115
-146 -192 -280 -237 -415 -9 -26 -22 -58 -30 -70 -20 -31 -46 -124 -46 -163 0
-18 -4 -35 -9 -38 -10 -7 -47 -109 -86 -241 -15 -49 -31 -99 -35 -110 -13 -30
-30 -122 -30 -160 0 -21 -6 -37 -16 -43 -12 -7 -15 -18 -11 -38 5 -27 4 -27
-9 -9 -13 18 -14 17 -8 -12 3 -17 1 -46 -4 -65 -6 -18 -16 -52 -22 -75 -8 -32
-14 -40 -28 -36 -21 5 -47 -21 -37 -37 10 -16 33 -12 44 8 8 14 10 10 11 -20
0 -20 -5 -40 -10 -43 -14 -9 -4 -235 11 -269 9 -18 7 -30 -5 -55 -15 -29 -15
-31 0 -31 10 0 14 5 10 15 -3 8 -2 15 2 15 4 0 15 -21 24 -47 9 -27 38 -81 64
-122 44 -68 46 -75 36 -105 -24 -65 -8 -101 71 -162 41 -32 49 -35 60 -22 12
15 175 81 193 77 23 -4 33 3 53 37 25 42 25 44 6 44 -8 0 -15 -4 -15 -10 0 -5
-9 -10 -19 -10 -11 0 -21 -5 -23 -12 -3 -7 -36 -13 -94 -15 -87 -2 -89 -3
-102 -31 -8 -16 -22 -33 -32 -40 -15 -9 -19 -7 -22 13 -5 25 42 104 75 124 15
10 258 65 332 75 11 2 28 7 38 11 22 9 71 -11 62 -25 -3 -6 -2 -10 4 -10 6 0
36 -12 66 -26 41 -18 255 -73 293 -74 8 0 0 -29 -10 -33 -29 -10 7 -21 82 -25
114 -7 107 -17 -10 -15 l-99 2 -22 -37 c-12 -20 -22 -45 -21 -55 0 -10 -3 -29
-8 -42 -7 -19 -6 -23 6 -18 25 9 -4 -43 -32 -58 -25 -13 -31 -33 -14 -44 6 -3
10 -1 10 4 0 6 5 11 10 11 17 0 11 -16 -16 -45 -21 -23 -28 -25 -35 -14 -7 11
-11 12 -17 1 -7 -10 -11 -10 -22 3 -17 21 -60 20 -60 -2 0 -12 -3 -14 -11 -6
-10 10 -49 5 -108 -13 -17 -5 -22 -4 -17 4 15 25 -44 24 -97 -1 -74 -36 -158
-60 -170 -48 -16 16 7 36 76 65 34 15 85 37 112 49 94 40 109 71 28 60 -34 -4
-44 -3 -39 5 10 17 3 15 -67 -14 -67 -28 -153 -57 -177 -60 -8 0 -21 -2 -29
-3 -9 -1 -11 -9 -7 -27 5 -17 3 -23 -4 -19 -5 3 -10 26 -10 50 0 51 16 66 90
85 25 7 68 23 95 37 28 14 75 27 105 30 93 9 120 36 50 47 -23 3 -49 11 -59
18 -24 15 -88 2 -101 -21 -5 -10 -23 -21 -40 -24 -16 -4 -51 -16 -76 -27 -29
-14 -50 -18 -57 -12 -7 5 -20 9 -29 9 -15 0 -17 -7 -11 -40 5 -32 2 -43 -14
-56 -44 -36 -184 -194 -216 -243 -69 -109 -131 -238 -107 -223 6 4 10 12 10
19 0 8 9 24 20 37 l20 24 -15 -30 c-8 -16 -15 -35 -15 -42 0 -7 -6 -16 -12
-20 -18 -11 -38 -50 -43 -81 -13 -87 -37 -221 -46 -248 -5 -17 -9 -49 -9 -72
l0 -42 -67 2 c-38 1 -79 -1 -93 -5 -22 -6 -22 -6 -5 3 14 7 -19 9 -115 5 -74
-3 -162 -5 -195 -3 -33 2 -215 2 -405 1 -190 0 -353 -1 -362 -1 -10 0 -94 1
-187 2 -97 0 -167 5 -164 10 4 5 -6 6 -22 2 -15 -4 -110 -7 -210 -7 l-182 0
-16 -53 c-10 -29 -17 -76 -17 -104 0 -56 5 -59 60 -42 23 7 24 8 6 15 -13 6
-21 4 -24 -3 -7 -21 -23 -13 -20 10 2 13 8 23 13 23 6 0 16 4 22 8 7 5 18 5
24 1 6 -3 14 -2 18 4 8 13 87 0 84 -14 -1 -6 6 -10 15 -10 9 0 35 -2 57 -3
l40 -2 -40 -19 -40 -19 93 0 c65 -1 91 2 86 10 -3 6 -15 8 -26 6 -12 -4 -18
-1 -15 6 2 7 12 14 23 16 10 2 22 7 25 13 5 8 94 15 249 22 25 1 50 5 57 9 6
4 14 3 17 -2 4 -5 1 -13 -5 -17 -21 -12 11 -22 36 -10 17 8 21 14 13 23 -7 9
-7 13 1 13 6 0 11 -4 11 -10 0 -5 7 -10 15 -10 8 0 15 -5 15 -11 0 -5 -4 -8
-9 -4 -5 3 -17 -2 -25 -11 -9 -8 -16 -13 -16 -9 0 3 -9 1 -20 -5 -26 -14 -26
-30 1 -30 13 0 18 4 13 11 -5 9 1 10 22 5 53 -12 86 -12 98 -2 17 16 149 14
169 -3 23 -19 48 3 45 38 -3 25 0 26 52 32 30 3 47 6 38 7 -10 1 -18 7 -18 13
0 6 7 8 16 5 9 -3 18 -6 20 -6 2 0 4 -6 4 -14 0 -16 -21 -26 -53 -26 l-21 0
22 -16 c12 -8 25 -13 30 -10 4 2 35 1 70 -3 34 -4 62 -4 62 1 0 4 -21 8 -47 8
-42 1 -46 2 -30 14 9 7 28 11 42 8 15 -2 25 0 25 7 0 6 -5 11 -12 11 -6 0 -8
3 -5 7 4 3 18 -4 31 -16 20 -19 24 -20 30 -6 3 9 2 13 -4 10 -6 -3 -10 -1 -10
4 0 15 13 14 36 -4 10 -8 29 -15 42 -15 12 0 22 -4 22 -10 0 -5 -20 -10 -45
-10 -25 0 -45 -4 -45 -8 0 -12 113 -4 120 8 4 7 23 3 51 -9 l44 -21 -37 0
c-30 0 -38 4 -38 18 -1 16 -2 16 -13 0 -7 -9 -26 -18 -42 -21 -17 -2 7 -5 52
-6 51 0 84 3 89 10 4 8 9 7 15 -2 6 -10 14 -7 33 15 23 27 27 28 65 19 22 -6
43 -8 46 -5 3 3 48 6 101 6 72 1 90 -1 72 -9 -73 -32 -33 -34 652 -34 411 -1
681 3 685 8 3 5 24 8 48 6 139 -13 161 -14 137 -6 -21 7 -16 9 27 10 32 1 53
-4 56 -11 4 -9 6 -8 6 2 1 12 11 15 43 13 24 -1 44 -7 46 -13 5 -15 22 -12 22
5 0 8 6 15 14 15 22 0 29 -18 9 -23 -10 -2 34 -4 97 -4 63 1 98 3 78 5 -39 3
-44 8 -29 30 6 11 10 10 15 -3 3 -9 12 -15 19 -12 8 3 20 1 27 -3 8 -5 22 -4
32 1 13 7 23 6 33 -5 13 -13 151 -15 1039 -16 696 0 1026 3 1031 10 3 5 12 10
18 10 7 0 6 -4 -3 -10 -10 -6 218 -10 654 -10 l669 0 -6 45 c-4 41 -29 86 -46
83 -3 -1 -15 3 -25 7 -13 6 -21 4 -24 -3 -4 -14 -32 -16 -32 -3 0 5 -29 8 -65
7 -36 -1 -65 2 -65 6 0 5 -7 2 -16 -6 -19 -19 -19 -19 -47 -4 -12 6 -64 13
-114 15 -79 3 -93 2 -93 -12 0 -18 -8 -18 -40 0 -29 17 -54 19 -45 5 9 -14 -8
-13 -23 2 -8 8 -15 8 -26 -1 -11 -9 -15 -9 -19 1 -4 10 -7 11 -18 0 -7 -6 -33
-12 -58 -11 l-46 1 40 13 c35 11 1 13 -255 13 -162 0 -384 3 -494 7 -125 4
-196 3 -192 -3 3 -5 -5 -9 -19 -9 -14 0 -22 4 -19 9 4 5 -2 9 -12 8 -11 -1
-46 -2 -79 -1 -60 1 -61 2 -73 35 -7 18 -21 41 -32 51 -11 10 -20 28 -20 41 0
12 -4 24 -10 26 -10 3 -13 20 -26 129 -5 46 -4 57 10 62 20 8 21 27 0 27 -9 0
-12 -5 -8 -11 4 -7 1 -10 -7 -7 -8 3 -14 9 -14 14 -1 14 -15 86 -21 107 -3 9
-12 17 -19 17 -8 0 -17 5 -21 12 -5 8 -2 9 9 5 14 -5 15 -2 6 21 -33 86 -103
195 -159 244 -33 29 -60 57 -60 62 0 5 -7 18 -17 28 -15 16 -15 20 0 35 8 10
23 37 32 60 10 24 21 43 27 43 15 0 42 71 45 117 1 23 9 63 18 88 8 25 15 61
15 81 0 19 7 46 16 59 11 16 14 34 9 55 -11 49 14 171 40 200 50 55 54 93 16
149 -16 25 -20 81 -8 111 4 8 5 24 4 35 -2 25 -33 23 403 25 190 1 332 5 315
9 l-30 7 35 8 c19 5 38 10 43 11 4 1 14 3 22 4 8 0 15 10 15 22 0 14 -5 19
-15 16 -8 -4 -17 -2 -20 3 -4 6 1 10 9 10 8 0 17 8 19 18 4 16 5 16 6 0 1 -20
21 -25 21 -6 0 9 3 9 12 0 7 -7 20 -12 30 -12 10 0 18 -4 18 -10 0 -5 5 -10
11 -10 6 0 9 7 5 15 -3 8 2 21 10 30 12 11 12 15 2 15 -7 0 -24 3 -37 7 -14 4
-22 2 -18 -3 3 -6 -3 -11 -14 -11 -17 -2 -18 1 -9 13 10 11 10 14 -1 14 -7 0
9 14 35 31 51 31 73 33 37 2 -12 -9 -21 -21 -21 -26 0 -5 7 -4 15 3 8 7 21 10
28 7 19 -7 33 4 41 33 3 14 3 19 0 12 -3 -7 -15 -17 -26 -23 -18 -10 -19 -9
-8 11 9 17 8 25 -5 40 -13 15 -14 20 -3 27 17 11 17 35 -2 50 -20 17 -36 16
-54 -2 -13 -14 -15 -13 -13 4 1 12 6 17 17 13 11 -4 12 -2 4 7 -15 17 -59 -4
-73 -35 -6 -13 -16 -23 -22 -22 -6 2 -14 -3 -16 -9 -3 -8 4 -13 16 -13 12 0
21 -3 22 -7 7 -50 4 -83 -8 -87 -8 -3 -11 -1 -8 4 3 6 -3 10 -15 10 -12 0 -19
4 -16 8 9 15 -9 31 -24 21 -13 -8 -13 -10 0 -19 9 -6 10 -10 3 -10 -6 0 -18 6
-26 14 -12 13 -19 11 -50 -11 -30 -21 -39 -24 -52 -13 -8 7 -15 8 -15 3 0 -5
-14 -10 -31 -10 -27 0 -29 2 -15 12 8 7 13 15 9 19 -4 3 -14 -4 -22 -16 -9
-13 -24 -24 -34 -24 -14 -2 -15 1 -6 12 10 12 8 13 -7 8 -10 -4 -25 -12 -32
-17 -9 -7 -11 -6 -7 6 4 8 17 18 31 21 25 7 31 20 15 31 -5 3 -12 1 -16 -5 -3
-5 -17 -10 -30 -10 -12 0 -26 -7 -29 -16 -4 -11 -13 -14 -31 -10 -21 5 -25 3
-25 -14 0 -12 -11 -32 -25 -46 -14 -14 -25 -30 -25 -36 0 -7 -4 -7 -14 1 -7 6
-25 12 -40 13 -33 3 -35 18 -2 18 25 0 48 19 24 21 -7 0 -21 2 -31 4 -11 2
-16 1 -13 -3 3 -3 -4 -16 -16 -29 -16 -17 -18 -22 -6 -18 9 4 19 2 23 -4 3 -6
1 -11 -4 -11 -6 0 -11 -6 -11 -12 0 -28 -20 -40 -71 -44 -51 -4 -53 -4 -34 12
19 15 18 16 -30 11 -27 -2 -58 -8 -67 -12 -15 -6 -17 -1 -16 31 1 22 7 45 15
52 18 19 16 32 -4 25 -13 -4 -15 -3 -8 5 6 6 29 13 52 15 40 5 42 4 32 -15 -9
-16 -8 -19 3 -12 11 6 11 5 -1 -9 -7 -9 -24 -17 -36 -17 -13 0 -25 -6 -28 -14
-8 -20 68 -33 88 -16 12 10 15 10 15 -1 0 -10 3 -10 15 2 12 12 13 21 4 47 -6
18 -15 32 -20 32 -4 0 -5 -7 -2 -17 4 -11 3 -14 -5 -9 -24 14 -13 37 16 34 31
-3 58 -38 39 -50 -8 -5 -6 -8 5 -8 11 0 16 7 15 20 -1 11 -5 20 -9 20 -5 0 -4
9 2 19 14 26 13 38 -2 23 -7 -7 -21 -12 -33 -11 -14 0 -15 2 -5 6 8 3 23 14
34 25 11 10 26 18 33 18 7 0 20 11 29 25 14 22 18 23 31 10 16 -17 33 -11 33
10 0 8 13 21 30 30 36 18 44 19 37 2 -4 -10 6 -12 44 -7 37 5 49 3 49 -7 0 -7
6 -13 13 -13 16 0 14 63 -2 68 -5 2 -7 10 -4 18 3 8 -1 14 -11 14 -10 0 -16 9
-16 24 0 13 -7 27 -16 30 -10 4 -13 2 -8 -6 5 -7 0 -9 -14 -6 -15 4 -25 0 -31
-10 -14 -25 -26 -6 -13 22 9 21 8 24 -14 24 -13 0 -21 -5 -17 -11 3 -6 -6 -8
-26 -5 -17 2 -31 2 -31 -2 0 -4 -10 -6 -22 -5 -13 2 -22 7 -21 13 4 18 -80 4
-91 -15 -6 -10 -11 -20 -11 -23 -5 -30 -20 -50 -38 -50 -21 -1 -21 -1 -3 -12
14 -8 24 -8 39 1 10 7 21 10 24 7 3 -3 -1 -8 -10 -12 -21 -8 -11 -32 30 -70
26 -24 31 -33 19 -37 -8 -3 -17 -1 -20 6 -2 7 -5 2 -5 -11 -1 -19 -5 -22 -23
-16 -13 3 -20 3 -16 -1 4 -4 2 -12 -5 -19 -15 -13 -117 -18 -117 -5 0 5 7 9
15 9 8 0 15 5 15 11 0 5 8 9 18 8 30 -3 40 1 46 17 5 12 2 15 -11 10 -10 -4
-14 -4 -11 0 4 4 3 15 -3 25 -7 14 -6 19 3 19 9 0 9 3 -1 13 -11 10 -14 10
-18 0 -3 -7 -13 -13 -24 -13 -10 0 -19 -5 -19 -10 0 -6 3 -9 8 -9 20 3 30 -3
35 -21 6 -24 1 -25 -20 -5 -8 8 -19 12 -25 9 -7 -4 -8 29 -3 102 12 166 5 326
-16 409 -28 106 -51 247 -51 312 0 22 -66 86 -133 129 -16 10 -45 36 -64 57
-33 37 -112 97 -127 97 -4 0 5 -11 20 -25 14 -13 26 -30 26 -37 0 -7 -9 -2
-20 12 l-20 25 19 -45 c39 -92 30 -92 -16 1 -55 110 -69 129 -93 129 -13 0
-16 -6 -13 -27 2 -19 -2 -13 -14 17 -25 61 -59 124 -75 137 -7 6 -35 14 -63
18 -62 9 -107 31 -168 85 -63 56 -122 170 -87 170 6 0 10 6 10 13 0 7 11 28
24 46 13 17 27 53 31 79 4 26 13 59 21 74 8 16 11 28 7 28 -4 0 -2 5 5 12 7 7
12 29 12 50 0 37 19 56 21 21 0 -15 2 -15 9 2 12 28 12 43 -1 25 -8 -11 -9 -4
-5 29 4 25 1 57 -6 77 -6 18 -9 37 -5 40 11 12 18 -1 27 -53 8 -48 8 -48 9 24
1 54 5 76 19 89 15 16 17 36 14 167 -3 152 -7 170 -55 262 -9 18 -9 19 6 6 11
-9 17 -10 17 -2 0 11 -13 15 -37 12 -7 -1 -13 2 -13 8 0 5 6 12 13 15 9 3 7 9
-5 19 -10 8 -15 17 -11 20 3 4 2 7 -3 7 -6 0 -16 15 -22 34 -14 39 -131 152
-183 178 -65 32 -169 69 -178 64 -5 -4 -11 -1 -13 4 -2 6 -14 11 -28 12 -14 1
-30 6 -37 10 -7 6 -19 5 -31 -1 -10 -5 -23 -7 -28 -3 -5 4 -42 5 -82 2z m-26
-435 c4 -15 11 -22 20 -18 8 3 20 0 28 -6 7 -6 20 -9 29 -5 12 4 16 -2 19 -28
3 -37 22 -44 52 -19 18 15 19 15 13 -1 -3 -9 3 -26 14 -39 l19 -22 0 21 c0 12
5 22 10 22 6 0 10 6 10 14 0 19 21 34 52 38 14 2 32 9 40 15 7 7 35 13 61 14
27 2 50 6 53 11 3 4 10 8 15 8 6 0 8 -4 5 -9 -3 -4 6 -6 21 -3 20 4 24 2 18
-8 -6 -10 -4 -12 7 -8 10 4 20 -5 31 -28 9 -19 23 -34 32 -34 12 0 15 -14 15
-67 0 -46 8 -90 25 -138 38 -107 42 -198 15 -338 -23 -114 -32 -136 -45 -99
-8 24 -69 51 -90 39 -11 -6 -22 -4 -33 5 -23 20 -142 88 -152 88 -20 0 -40 32
-31 48 7 13 27 16 93 18 82 1 168 19 168 36 0 4 -5 8 -11 8 -5 0 -8 4 -4 9 3
5 0 11 -7 14 -7 2 -1 3 14 1 28 -3 36 8 37 59 1 9 2 31 3 47 3 61 -75 101
-155 79 -15 -4 -55 -9 -87 -11 -42 -2 -60 -7 -60 -16 0 -9 -7 -11 -19 -7 -14
4 -21 0 -26 -14 -5 -18 -9 -19 -27 -8 -12 7 -29 19 -38 28 -19 18 -181 59
-234 59 -61 0 -124 -71 -94 -107 10 -13 10 -17 1 -20 -7 -3 -13 -17 -13 -31 0
-30 46 -73 105 -98 36 -15 191 -20 211 -6 7 4 20 22 31 41 10 19 23 36 29 38
16 5 67 -115 60 -142 -9 -36 2 -52 39 -59 35 -7 51 -29 32 -44 -7 -5 -21 -8
-32 -5 -41 9 -123 8 -117 -1 3 -6 -3 -6 -14 -1 -10 5 -36 7 -56 6 -49 -2 -57
16 -22 45 35 28 41 29 47 7 4 -14 5 -14 6 3 1 17 -6 23 -31 27 -26 4 -43 -1
-77 -25 -29 -21 -79 -40 -153 -59 -97 -25 -112 -26 -125 -13 -46 45 -58 331
-16 377 52 56 87 169 70 224 -10 33 -9 37 18 60 46 38 85 52 143 51 46 0 53
-3 58 -23z m154 -49 c0 -2 -7 -6 -15 -10 -8 -3 -15 -1 -15 4 0 6 7 10 15 10 8
0 15 -2 15 -4z m-549 -283 c12 -16 12 -17 -2 -6 -9 7 -20 9 -24 5 -5 -4 -5 -1
-1 6 9 16 11 15 27 -5z m299 -47 c0 -2 -7 -7 -16 -10 -8 -3 -12 -2 -9 4 6 10
25 14 25 6z m-25 -66 c-3 -5 -13 -6 -21 -3 -12 4 -13 8 -3 14 15 9 32 2 24
-11z m-215 -82 c-1 -35 -3 -40 -11 -25 -10 17 -5 67 6 67 3 0 5 -19 5 -42z
m580 -307 c0 -14 -81 -24 -129 -16 -67 11 -47 22 44 24 51 1 85 -2 85 -8z
m-33 -47 c-10 -10 -74 -12 -89 -3 -8 5 9 9 41 9 30 0 51 -3 48 -6z m-193 -49
c-4 -8 -8 -15 -10 -15 -2 0 -4 7 -4 15 0 8 4 15 10 15 5 0 7 -7 4 -15z m28
-45 c18 -11 41 -20 51 -20 10 0 15 -5 12 -10 -7 -11 89 -8 138 5 17 5 27 3 27
-4 0 -6 7 -11 16 -11 8 0 12 -5 9 -10 -4 -6 -11 -8 -16 -5 -5 4 -9 2 -9 -3 0
-13 -64 -26 -127 -25 -60 1 -150 40 -144 64 2 8 4 20 4 27 0 16 1 16 39 -8z
m466 -58 c2 -26 7 -64 13 -85 13 -49 -2 -129 -36 -196 -14 -28 -28 -51 -30
-51 -5 0 14 44 36 84 19 34 27 121 12 135 -13 11 -17 42 -16 106 1 49 3 55 11
55 4 0 8 -21 10 -48z m-692 -64 c2 -15 -1 -30 -6 -33 -5 -3 -7 -18 -5 -33 l4
-27 -13 30 c-8 17 -17 59 -21 95 l-6 65 22 -35 c12 -19 23 -47 25 -62z m-407
58 c-10 -9 -69 -36 -69 -32 0 7 52 35 64 36 5 0 7 -2 5 -4z m1141 -69 c0 -6 6
-18 14 -26 8 -9 16 -32 19 -51 8 -52 27 -112 43 -135 21 -29 18 -55 -27 -272
-63 -309 -80 -438 -58 -431 6 2 13 33 15 68 1 36 8 89 13 119 6 29 11 55 11
57 0 2 8 5 18 5 14 1 14 2 1 6 -22 6 -12 60 14 78 12 8 16 15 9 15 -22 0 -13
40 15 66 20 19 24 27 15 36 -7 7 -12 19 -12 27 1 11 5 8 13 -7 7 -12 16 -19
20 -16 11 11 8 -25 -7 -88 -17 -71 -23 -80 -47 -73 -25 8 -25 -12 0 -39 19
-20 19 -24 4 -76 -11 -39 -16 -98 -16 -203 l1 -149 -32 5 c-43 6 -319 79 -445
117 -163 49 -153 39 -179 178 -13 65 -25 141 -27 168 -3 27 -7 61 -10 75 -5
23 -3 27 17 26 13 -1 36 2 51 6 21 6 27 5 21 -4 -4 -7 -3 -9 3 -6 5 3 34 0 64
-8 73 -20 169 -19 221 2 72 28 228 141 228 164 0 6 -12 -2 -27 -16 -15 -14
-31 -25 -34 -25 -4 0 -26 -16 -50 -36 -77 -64 -135 -87 -216 -86 -100 1 -172
24 -235 75 -91 74 -68 83 31 11 34 -24 62 -28 62 -9 0 5 -5 11 -12 14 -7 2 -9
-1 -5 -8 5 -7 1 -9 -10 -4 -15 5 -15 7 0 15 10 5 23 5 35 -2 13 -7 22 -7 26 0
3 5 18 10 33 10 15 0 44 6 65 14 46 15 88 10 80 -10 -9 -24 6 -16 57 32 28 26
50 42 50 37 0 -15 -66 -72 -122 -108 -27 -17 -48 -34 -48 -38 0 -10 32 8 94
51 51 37 94 53 80 30 -4 -7 8 -1 27 13 84 64 169 344 127 422 -10 20 -10 21 5
8 10 -7 17 -18 17 -24z m251 -129 c8 -15 8 -18 0 -14 -6 4 -16 16 -22 28 -8
15 -8 18 0 14 6 -4 16 -16 22 -28z m-391 -192 c0 -2 -8 -10 -17 -17 -16 -13
-17 -12 -4 4 13 16 21 21 21 13z m0 -70 c0 -2 -7 -7 -16 -10 -8 -3 -12 -2 -9
4 6 10 25 14 25 6z m845 -96 c4 1 9 -1 12 -4 7 -7 -34 1 -47 9 -5 3 -15 16
-21 28 -10 18 -7 17 19 -6 16 -16 33 -28 37 -27z m-1365 -300 c0 -5 -7 -10
-16 -10 -8 0 -12 5 -9 10 3 6 10 10 16 10 5 0 9 -4 9 -10z m765 -40 c-4 -12
-9 -19 -12 -17 -3 3 -2 15 2 27 4 12 9 19 12 17 3 -3 2 -15 -2 -27z m-752 0
c17 -20 16 -20 -10 -14 -35 8 -37 10 -28 23 9 16 18 14 38 -9z m-19 -45 c4
-10 -1 -15 -14 -15 -11 0 -20 7 -20 15 0 8 6 15 14 15 8 0 16 -7 20 -15z m1
-35 c3 -6 -1 -7 -9 -4 -18 7 -21 14 -7 14 6 0 13 -4 16 -10z m260 -78 c260
-76 400 -115 433 -120 l33 -4 -7 -59 c-4 -33 -10 -74 -14 -92 l-8 -32 -2 35
c-1 28 -3 31 -9 15 -7 -17 -8 -17 -15 8 -3 15 -19 33 -36 42 -28 14 -30 14
-41 -6 -6 -12 -9 -37 -6 -55 3 -19 3 -33 -1 -32 -4 1 -18 -4 -32 -11 l-25 -13
23 21 c23 23 26 30 16 55 -9 24 -23 19 -17 -5 5 -17 2 -20 -13 -17 -25 4 -30
41 -8 59 13 11 18 11 21 2 7 -20 23 -15 23 6 0 17 -18 31 -41 31 -5 0 -18 -9
-29 -20 -29 -29 -26 -81 5 -108 31 -27 31 -38 3 -46 -22 -6 -21 -8 12 -26 57
-31 17 -23 -87 19 -54 22 -134 47 -177 56 -43 8 -102 27 -131 40 -29 14 -60
25 -71 25 -10 0 -26 5 -34 10 -12 7 -12 12 -2 22 9 9 12 9 12 -5 0 -12 8 -17
30 -17 24 0 30 4 30 21 0 15 -5 19 -16 15 -9 -3 -12 -2 -9 5 4 6 -1 17 -11 25
-12 10 -6 8 15 -3 18 -10 36 -25 39 -33 11 -27 60 -71 67 -60 11 18 -3 40 -21
33 -12 -4 -15 -3 -10 5 4 7 1 15 -7 18 -16 6 -17 14 -21 104 -4 84 -7 94 -16
45 -7 -39 -7 -38 -9 17 0 31 -4 64 -8 73 -5 14 -3 16 13 8 10 -6 82 -29 159
-51z m-280 39 c3 -5 1 -12 -5 -16 -5 -3 -10 1 -10 9 0 18 6 21 15 7z m44 -40
c-11 -24 -23 -40 -27 -37 -3 4 0 12 6 18 7 7 12 23 12 36 0 13 4 20 10 17 6
-3 10 -1 10 6 0 7 2 10 5 7 3 -2 -4 -24 -16 -47z m1 -69 c0 -5 -7 -9 -15 -9
-8 0 -15 4 -15 9 0 4 7 8 15 8 8 0 15 -4 15 -8z m80 -49 c0 -7 -5 -13 -12 -13
-6 0 -8 3 -4 7 3 4 -4 13 -16 20 -13 7 -17 12 -9 13 11 0 11 3 0 18 -7 9 -1 6
14 -7 15 -14 27 -30 27 -38z m-120 -25 c0 -5 -6 -8 -14 -8 -9 0 -12 7 -9 21 4
16 8 17 14 7 5 -7 9 -16 9 -20z m42 -12 c-4 -15 -7 -17 -10 -6 -3 8 -10 18
-16 22 -6 4 -1 6 10 6 16 -2 20 -7 16 -22z m1704 -81 c-3 -9 -11 -13 -16 -10
-8 5 -7 11 1 21 14 18 24 11 15 -11z m-1094 -27 c-9 -9 -12 -7 -12 12 0 19 3
21 12 12 9 -9 9 -15 0 -24z m1045 5 c-15 -16 -17 -16 -17 -1 0 9 6 18 13 21
20 7 22 -2 4 -20z m-1780 -15 c-3 -8 -6 -5 -6 6 -1 11 2 17 5 13 3 -3 4 -12 1
-19z m2038 12 c3 -5 -1 -10 -9 -10 -9 0 -16 5 -16 10 0 6 4 10 9 10 6 0 13 -4
16 -10z m-29 -39 c-4 -6 -13 -11 -19 -10 -9 0 -9 2 0 5 7 3 9 13 6 22 -5 13
-3 14 7 5 7 -6 9 -16 6 -22z m-1839 -13 c-3 -7 -5 -2 -5 12 0 14 2 19 5 13 2
-7 2 -19 0 -25z m62 -21 c1 -5 -3 -5 -9 -2 -5 3 -10 16 -9 28 0 21 1 21 9 2 5
-11 9 -24 9 -28z m551 28 c0 -8 -3 -14 -7 -14 -22 4 -53 -2 -53 -9 0 -5 15
-16 33 -25 l32 -16 -50 2 c-33 1 -49 6 -48 14 2 7 -4 10 -12 7 -8 -4 -15 -11
-15 -18 0 -6 -5 -3 -11 7 -13 21 -10 26 19 32 13 2 26 -3 32 -13 9 -15 10 -15
8 3 -2 15 4 21 22 23 14 2 29 8 35 13 12 12 15 11 15 -6z m-750 -85 c5 0 6 9
3 20 -4 15 0 20 15 20 12 0 24 -5 28 -12 5 -8 2 -9 -11 -4 -16 6 -16 4 -4 -11
7 -10 20 -24 29 -32 15 -14 7 -13 -52 6 -13 4 -18 0 -18 -16 0 -28 -17 -27
-18 2 -1 12 -2 29 -3 37 -1 8 -1 31 1 50 2 34 3 34 12 -12 6 -27 14 -48 18
-48z m261 66 c5 3 9 -5 9 -17 0 -18 -2 -19 -15 -9 -8 7 -15 20 -14 29 0 10 2
12 6 3 2 -6 9 -10 14 -6z m1559 -11 c0 -15 -2 -17 -9 -6 -5 8 -18 12 -30 8
-12 -3 -21 -2 -21 2 0 14 11 19 36 17 17 -1 24 -7 24 -21z m-1465 -5 l20 -9
-20 0 c-17 -1 -17 -3 -5 -11 13 -9 13 -10 0 -11 -10 0 -8 -3 5 -9 11 -5 15 -9
8 -9 -26 -2 -43 12 -43 35 0 26 4 27 35 14z m2059 -15 c3 -8 1 -15 -4 -15 -6
0 -10 7 -10 15 0 8 2 15 4 15 2 0 6 -7 10 -15z m-2246 -25 c1 -3 15 -5 31 -2
15 2 50 -5 77 -16 27 -12 83 -31 124 -44 48 -15 67 -24 53 -26 -16 -2 -23 -11
-24 -25 -1 -17 -2 -18 -6 -4 -7 28 -21 20 -26 -15 -4 -32 -4 -32 -5 5 -1 23
-6 36 -12 32 -14 -9 -12 -72 3 -78 6 -2 9 -7 6 -11 -3 -3 -13 -4 -21 -1 -12 5
-14 17 -11 53 3 35 2 43 -6 32 -9 -13 -11 -13 -11 3 0 9 -6 17 -12 17 -7 0
-24 9 -38 20 -33 26 -40 25 -40 -5 0 -14 -4 -25 -10 -25 -5 0 -10 14 -10 32 0
17 -3 28 -7 25 -3 -4 -12 1 -19 11 -12 15 -15 15 -24 2 -16 -24 -7 -53 20 -67
14 -7 22 -13 18 -13 -3 0 -13 -3 -21 -6 -9 -3 -31 11 -55 35 -37 37 -41 45
-20 42 4 0 5 6 2 14 -4 8 -11 15 -18 15 -6 0 -4 5 4 10 15 10 53 3 58 -10z
m285 14 c14 -5 13 -8 -1 -25 -22 -25 -27 -24 -27 6 0 26 4 29 28 19z m84 -49
c0 -8 -5 -15 -11 -15 -5 0 -1 -7 10 -16 18 -14 18 -14 -6 -3 -33 15 -31 14
-24 33 8 20 31 21 31 1z m-470 -19 c8 -1 26 -15 40 -31 l27 -28 -25 6 c-13 4
-34 7 -46 7 -25 0 -53 25 -53 46 0 11 6 13 21 9 12 -4 28 -8 36 -9z m138 5 c3
-5 1 -12 -5 -16 -5 -3 -10 1 -10 9 0 18 6 21 15 7z m413 -31 c-7 -10 -14 -18
-15 -16 -6 6 9 36 18 36 5 0 4 -9 -3 -20z m-301 -32 c-3 -8 -6 -5 -6 6 -1 11
2 17 5 13 3 -3 4 -12 1 -19z m2 -28 c21 -20 24 -40 6 -40 -10 0 -12 6 -8 18 6
15 5 15 -10 3 -21 -17 -45 -8 -56 21 -7 20 -5 24 18 28 14 3 28 1 30 -5 2 -5
11 -17 20 -25z m144 25 c-3 -9 -8 -14 -10 -11 -3 3 -2 9 2 15 9 16 15 13 8 -4z
m1832 -6 c-10 -15 -25 -10 -19 6 4 8 10 12 15 9 5 -3 7 -10 4 -15z m-2219 3
c9 -5 9 -10 -1 -19 -9 -8 -16 -7 -28 8 -16 18 -16 19 1 19 9 0 22 -4 28 -8z
m2274 -17 c0 -8 -4 -15 -10 -15 -5 0 -10 7 -10 15 0 8 5 15 10 15 6 0 10 -7
10 -15z m-2169 -54 c-16 -3 -41 25 -41 45 0 7 12 1 28 -14 20 -20 23 -28 13
-31z m1819 38 c0 -7 10 -9 25 -7 29 6 34 -13 8 -33 -16 -12 -17 -12 -5 2 11
14 8 16 -25 15 -21 0 -43 -7 -49 -15 -9 -11 -11 -10 -11 5 0 10 5 24 11 31 14
15 46 17 46 2z m180 -25 c0 -8 -4 -14 -10 -14 -5 0 -10 9 -10 21 0 11 5 17 10
14 6 -3 10 -13 10 -21z m75 6 c3 -5 -1 -10 -9 -10 -8 0 -16 -6 -19 -12 -2 -7
-3 -5 -2 4 2 10 -5 18 -19 21 -14 3 -11 5 11 6 17 0 35 -3 38 -9z m-169 -22
c-11 -16 -12 -26 -5 -41 9 -15 8 -18 -1 -12 -7 5 -31 9 -54 10 -23 2 -49 3
-58 4 -22 1 -23 17 -2 25 10 4 13 2 8 -7 -5 -9 -4 -9 6 0 9 8 19 9 31 3 12 -7
19 -6 23 5 3 8 12 15 21 15 8 0 15 5 15 10 0 6 7 10 16 10 14 0 14 -2 0 -22z
m-2166 -48 c-15 -28 -20 -23 -13 13 4 18 9 25 15 19 6 -6 6 -18 -2 -32z m308
25 c3 -2 -11 -11 -29 -19 -30 -12 -31 -14 -11 -15 15 -1 22 -6 18 -13 -2 -7
-10 -32 -17 -55 -7 -28 -17 -43 -27 -43 -11 0 -2 -12 23 -32 47 -40 66 -44
352 -89 19 -3 -57 -17 -99 -18 -44 -1 -248 38 -300 58 -14 5 -50 14 -79 20
-30 5 -63 12 -74 16 -19 6 -19 6 -1 -6 21 -13 95 -33 291 -80 127 -30 177 -48
103 -36 -21 3 -38 2 -38 -3 0 -5 -14 -7 -30 -3 -22 4 -35 1 -43 -10 -11 -13
-57 -27 -97 -28 -31 -1 -89 7 -95 13 -4 3 -21 2 -39 -3 -41 -11 -222 5 -242
22 -13 11 -11 16 17 40 24 21 47 29 95 34 35 4 64 10 64 15 0 13 -38 19 -86
13 -40 -4 -45 -2 -42 14 2 14 15 19 53 23 l50 6 -40 8 c-62 12 -64 14 -9 15
28 1 73 -6 100 -14 65 -20 80 -20 64 0 -7 8 -17 12 -23 8 -16 -10 -1 117 16
134 13 13 15 4 22 -72 l7 -86 30 3 30 3 3 88 c2 48 7 92 10 97 6 9 63 5 73 -5z
m182 -5 c0 -5 -2 -10 -4 -10 -3 0 -8 5 -11 10 -3 6 -1 10 4 10 6 0 11 -4 11
-10z m40 0 c8 -5 11 -10 5 -10 -5 0 -17 5 -25 10 -8 5 -10 10 -5 10 6 0 17 -5
25 -10z m1730 -10 c-20 -13 -40 -13 -40 0 0 6 12 10 28 10 21 0 24 -2 12 -10z
m50 -10 c-11 -21 -40 -28 -40 -10 0 8 27 25 48 29 1 1 -2 -8 -8 -19z m-2270
-47 l-1 -48 -14 39 c-14 40 -12 56 6 56 5 0 9 -21 9 -47z m1680 37 c0 -5 -5
-10 -11 -10 -5 0 -7 5 -4 10 3 6 8 10 11 10 2 0 4 -4 4 -10z m500 -6 c0 -2 -7
-4 -15 -4 -8 0 -15 4 -15 10 0 5 7 7 15 4 8 -4 15 -8 15 -10z m-227 -1 c-7 -2
-19 -2 -25 0 -7 3 -2 5 12 5 14 0 19 -2 13 -5z m-1664 -39 c-19 -32 -20 -39
-9 -58 12 -19 12 -20 -3 -7 -10 7 -17 20 -17 28 0 19 32 73 43 73 5 0 -1 -16
-14 -36z m110 -19 c16 -9 14 -55 -3 -55 -26 0 -39 28 -31 67 6 33 8 35 15 17
5 -12 13 -25 19 -29z m-67 -20 c2 -19 3 -35 1 -35 -8 0 -23 52 -17 61 9 15 12
11 16 -26z m338 31 c0 -2 -7 -6 -15 -10 -8 -3 -15 -1 -15 4 0 6 7 10 15 10 8
0 15 -2 15 -4z m-192 -55 c-10 -3 -37 28 -38 44 0 5 11 -2 24 -15 12 -14 19
-27 14 -29z m42 -1 c0 -5 -5 -10 -11 -10 -5 0 -7 5 -4 10 3 6 8 10 11 10 2 0
4 -4 4 -10z m-181 -56 c13 -12 -8 -10 -29 2 l-25 15 25 -7 c14 -3 27 -8 29
-10z m45 -2 c3 -5 -1 -9 -9 -9 -8 0 -12 4 -9 9 3 4 7 8 9 8 2 0 6 -4 9 -8z
m49 -9 c-3 -7 -6 -13 -8 -13 -2 0 -5 6 -8 13 -3 8 1 14 8 14 7 0 11 -6 8 -14z
m62 -2 c-3 -6 -11 -11 -16 -11 -5 0 -4 6 3 14 14 16 24 13 13 -3z m155 -9 c0
-5 -7 -9 -15 -9 -8 0 -15 4 -15 9 0 4 7 8 15 8 8 0 15 -4 15 -8z m-190 -129
c0 -8 -65 -53 -75 -53 -3 0 -15 -8 -26 -18 -11 -11 -37 -24 -58 -31 -21 -6
-44 -18 -51 -26 -7 -8 -27 -17 -46 -21 -19 -3 -37 -10 -39 -15 -3 -4 7 -5 22
-3 16 3 38 7 51 8 12 2 25 6 29 9 3 4 21 7 40 7 18 0 33 5 33 12 0 6 3 9 6 6
3 -4 31 7 63 22 32 16 66 29 77 30 133 3 164 6 164 12 0 5 15 8 33 8 l32 0
-32 -30 c-18 -17 -36 -30 -41 -30 -17 0 -84 -37 -83 -46 1 -17 -134 -55 -225
-64 -65 -6 -112 -4 -160 5 -38 7 -79 11 -92 9 -14 -3 -21 -1 -18 5 4 6 -16 10
-51 10 -69 0 -252 37 -272 56 -11 11 -7 15 23 25 28 9 52 9 105 0 102 -17 141
-19 148 -6 3 6 3 8 -1 4 -5 -4 -31 2 -59 12 -29 10 -78 22 -109 25 -47 5 -58
10 -58 24 0 10 8 25 18 33 14 13 34 14 137 7 143 -11 159 -15 127 -33 -24 -13
-24 -13 7 -14 17 -1 37 -2 44 -3 77 -5 152 7 232 36 100 37 105 38 105 28z
m-627 -203 c10 0 16 -4 13 -9 -11 -16 -166 -47 -166 -32 1 29 52 52 100 46 19
-3 43 -5 53 -5z m87 -32 c-25 -11 -56 -24 -70 -29 -17 -6 -10 -7 25 -3 110 12
290 15 310 5 29 -15 105 -30 121 -24 8 3 14 1 14 -4 0 -5 37 -10 82 -12 46 -1
84 -4 86 -6 2 -2 -11 -11 -28 -20 -28 -14 -66 -17 -274 -15 -132 1 -254 3
-271 5 -16 2 -75 7 -130 10 -55 3 -108 8 -118 11 -31 10 0 32 61 44 31 7 86
22 122 35 84 31 136 33 70 3z m235 -174 c88 -5 129 -11 110 -15 -26 -6 -24 -7
17 -8 51 -1 60 -10 71 -68 4 -19 1 -46 -8 -65 -8 -18 -15 -26 -15 -18 0 9 -6
5 -15 -10 -8 -14 -14 -19 -15 -12 0 6 -7 12 -16 12 -8 0 -13 4 -10 8 2 4 1 14
-5 22 -5 10 -9 11 -9 3 0 -7 -7 -10 -15 -7 -14 6 -19 -6 -18 -43 1 -19 -11
-16 -25 8 -8 12 -19 18 -28 15 -7 -3 -22 3 -31 13 -10 10 -26 21 -36 24 -14 5
-16 2 -11 -17 3 -14 0 -27 -10 -35 -8 -7 -12 -19 -9 -27 4 -10 0 -12 -11 -8
-9 3 -16 16 -16 28 -1 21 -1 21 -16 1 -16 -19 -16 -19 -9 5 8 24 7 24 -16 7
-44 -31 -79 -48 -79 -37 0 5 -4 10 -10 10 -5 0 -10 -6 -10 -14 0 -20 -32 -45
-37 -28 -3 6 -8 10 -12 7 -5 -2 -11 39 -14 91 -4 77 -9 100 -26 118 -11 11
-24 32 -29 46 l-10 26 117 -13 c64 -6 179 -15 256 -19z m-105 28 c0 -5 -28 -7
-62 -5 -96 6 -101 11 -15 12 42 0 77 -3 77 -7z m-312 -49 c-10 -2 -26 -2 -35
0 -10 3 -2 5 17 5 19 0 27 -2 18 -5z m272 -224 c0 -11 -4 -17 -10 -14 -5 3
-10 15 -10 26 0 11 5 17 10 14 6 -3 10 -15 10 -26z m-57 -24 c-3 -9 -8 -14
-10 -11 -3 3 -2 9 2 15 9 16 15 13 8 -4z m-480 -172 c-7 -2 -21 -2 -30 0 -10
3 -4 5 12 5 17 0 24 -2 18 -5z m305 -228 c-3 -3 -9 2 -12 12 -6 14 -5 15 5 6
7 -7 10 -15 7 -18z m-1238 -209 c0 -3 -4 -8 -10 -11 -5 -3 -10 -1 -10 4 0 6 5
11 10 11 6 0 10 -2 10 -4z m95 -84 c-30 -25 -85 -62 -92 -62 -14 1 71 70 87
70 8 0 10 -3 5 -8z m-15 -59 c-35 -32 -74 -65 -87 -74 -13 -8 -30 -24 -38 -35
-8 -10 -15 -13 -15 -7 0 30 159 173 193 173 6 0 -18 -26 -53 -57z m153 50 c3
-5 -29 -23 -72 -40 l-76 -33 42 40 c30 28 51 40 72 40 16 0 32 -3 34 -7z
m2787 -2 c0 -5 -44 -24 -97 -42 -54 -18 -128 -44 -165 -59 -38 -16 -68 -26
-68 -24 0 2 30 20 68 39 37 20 81 45 99 56 45 28 163 50 163 30z m-2714 -23
c4 4 0 -6 -10 -21 -25 -41 -79 -87 -94 -82 -7 3 -10 1 -7 -5 3 -5 -4 -14 -15
-20 -15 -8 -20 -8 -21 2 0 7 -4 3 -9 -9 -7 -18 -15 -21 -42 -18 -29 3 -31 2
-15 -9 17 -13 16 -14 -3 -19 -13 -3 -18 -1 -13 6 4 7 0 8 -13 2 -10 -4 -27 -8
-36 -9 -10 -1 -20 -5 -24 -9 -7 -7 -44 14 -44 26 0 5 10 5 23 2 16 -5 18 -4 8
3 -25 18 28 59 154 120 88 43 116 51 136 41 9 -5 20 -5 25 -1z m2822 -48 c22
-16 32 -31 29 -42 -3 -10 -1 -18 4 -18 10 0 12 -44 3 -77 -3 -11 -16 -24 -27
-27 -20 -5 -21 -4 -4 8 20 16 23 28 4 20 -7 -2 -27 2 -43 11 -17 8 -30 11 -32
5 -2 -6 -12 -10 -23 -10 -10 0 -19 -5 -19 -11 0 -5 -5 -7 -10 -4 -6 4 -17 2
-24 -4 -10 -8 -16 -8 -25 2 -8 11 -5 23 14 52 14 20 20 34 13 31 -7 -3 -21 -9
-30 -12 -10 -3 -20 -16 -24 -28 -9 -30 -44 -50 -44 -25 0 5 5 7 10 4 6 -3 10
-2 10 4 0 15 -23 26 -28 13 -2 -7 -8 -12 -13 -12 -6 0 -8 4 -5 9 4 5 -3 7 -14
4 -11 -3 -18 -9 -15 -13 3 -5 -3 -6 -13 -3 -11 2 -26 -3 -35 -11 -20 -20 -42
-20 -106 1 -65 21 -57 31 53 68 43 14 88 31 100 37 12 7 50 22 86 35 85 30
162 27 208 -7z m-2709 -106 c-13 -14 -33 -30 -44 -35 -11 -6 -2 6 19 26 46 41
60 46 25 9z m-65 -5 c-10 -11 -28 -25 -39 -31 -12 -5 -7 3 13 21 37 35 55 42
26 10z m2516 -23 c0 -2 -7 -7 -16 -10 -8 -3 -12 -2 -9 4 6 10 25 14 25 6z
m235 -6 c3 -5 -3 -10 -14 -10 -12 0 -21 5 -21 10 0 6 6 10 14 10 8 0 18 -4 21
-10z m-1905 -10 c0 -11 -14 -11 -50 0 -22 7 -21 8 13 9 20 1 37 -3 37 -9z m97
4 c-3 -3 -12 -4 -19 -1 -8 3 -5 6 6 6 11 1 17 -2 13 -5z m93 -6 c-1 -31 -16
-39 -38 -20 -29 26 -28 32 8 32 17 0 30 -5 30 -12z m-934 -7 c-4 -5 -3 -11 1
-14 5 -2 2 -2 -5 0 -7 1 -10 -2 -6 -8 4 -6 0 -15 -7 -20 -10 -6 -6 -9 14 -9
16 0 26 -4 23 -9 -3 -5 -15 -7 -26 -4 -11 3 -20 0 -20 -6 0 -6 -7 -11 -16 -11
-8 0 -12 5 -9 10 3 6 2 10 -3 10 -5 0 -14 -10 -21 -22 -6 -13 -9 -15 -7 -6 3
10 1 20 -5 24 -14 8 7 31 50 54 42 22 44 23 37 11z m962 -16 c-3 -3 -9 2 -12
12 -6 14 -5 15 5 6 7 -7 10 -15 7 -18z m82 15 c0 -5 -7 -7 -15 -4 -8 4 -15 8
-15 10 0 2 7 4 15 4 8 0 15 -4 15 -10z m67 4 c-3 -3 -12 -4 -19 -1 -8 3 -5 6
6 6 11 1 17 -2 13 -5z m103 -4 c-12 -8 -12 -12 -2 -18 10 -7 10 -11 -3 -22
-11 -9 -15 -9 -15 -1 0 8 -8 10 -22 5 -19 -6 -18 -3 7 19 17 15 35 26 40 27 6
0 3 -5 -5 -10z m55 0 c-3 -5 -12 -7 -20 -3 -21 7 -19 13 6 13 11 0 18 -4 14
-10z m155 0 c0 -12 -8 -12 -35 0 -18 8 -17 9 8 9 15 1 27 -3 27 -9z m995 0
c-3 -5 -14 -10 -23 -9 -14 0 -13 2 3 9 27 11 27 11 20 0z m-4948 -36 c-3 -3
-12 -4 -19 -1 -8 3 -5 6 6 6 11 1 17 -2 13 -5z m3873 -2 c0 -4 -9 -8 -19 -8
-11 0 -17 4 -15 8 3 4 12 8 20 8 8 0 14 -4 14 -8z m32 -20 c-7 -2 -12 -9 -12
-16 0 -7 -7 -13 -15 -13 -21 0 -19 8 8 33 12 12 24 16 26 11 2 -6 -1 -13 -7
-15z m1643 18 c-3 -5 -12 -10 -18 -10 -7 0 -6 4 3 10 19 12 23 12 15 0z m778
-18 c-18 -5 -27 3 -18 17 4 7 10 7 20 -2 11 -10 11 -13 -2 -15z m-2909 6 c-3
-4 1 -8 8 -9 8 0 9 -2 2 -5 -6 -3 -24 2 -40 11 l-29 15 32 -2 c17 -1 29 -6 27
-10z m56 1 c3 -3 32 -11 65 -16 33 -6 71 -14 84 -17 14 -3 30 -1 36 4 17 14
45 2 45 -19 0 -9 -3 -12 -8 -6 -4 6 -25 11 -47 12 -22 1 -62 5 -90 8 -27 3
-63 7 -79 8 -19 1 -30 8 -32 19 -2 16 15 21 26 7z m-236 -14 c-7 -18 -30 -20
-40 -3 -5 8 -2 9 9 5 9 -3 19 -2 22 3 9 15 15 12 9 -5z m73 -10 c0 -10 -5 -11
-19 -4 -10 5 -18 14 -18 18 0 5 8 7 18 4 10 -2 19 -11 19 -18z m3098 15 c-3
-5 -11 -10 -16 -10 -6 0 -7 5 -4 10 3 6 11 10 16 10 6 0 7 -4 4 -10z m-6185
-15 c0 -9 9 -15 25 -15 14 0 25 -4 25 -8 0 -13 -99 -7 -110 6 -7 8 -7 9 1 3
15 -12 39 -3 39 15 0 8 5 14 10 14 6 0 10 -7 10 -15z m3730 5 c0 -5 -4 -10 -9
-10 -6 0 -13 5 -16 10 -3 6 1 10 9 10 9 0 16 -4 16 -10z m-2992 -13 c7 -5 12
-4 12 2 0 6 16 11 35 11 19 0 35 -5 35 -11 0 -5 -4 -8 -9 -5 -5 3 -28 -1 -51
-9 -23 -8 -46 -12 -52 -9 -5 3 -14 1 -21 -5 -21 -17 -67 -32 -67 -21 0 6 6 10
14 10 7 0 19 6 25 14 10 12 7 14 -20 11 -27 -4 -30 -3 -15 8 18 13 94 16 114
4z m1462 -7 c0 -15 -7 -20 -29 -20 -16 0 -32 -6 -34 -12 -4 -10 -6 -10 -6 0
-1 7 7 16 17 19 9 4 21 12 25 20 12 20 27 16 27 -7z m-2303 4 c-3 -3 -12 -4
-19 -1 -8 3 -5 6 6 6 11 1 17 -2 13 -5z m693 -15 c0 -11 -27 -12 -34 0 -3 4
-3 11 0 14 8 8 34 -3 34 -14z m360 11 c0 -13 -11 -13 -30 0 -12 8 -11 10 8 10
12 0 22 -4 22 -10z m2675 2 c-9 -9 -125 -19 -125 -11 0 9 30 14 88 16 24 1 41
-2 37 -5z m-2315 -18 c0 -2 -9 -4 -20 -4 -11 0 -20 4 -20 9 0 5 9 7 20 4 11
-3 20 -7 20 -9z m305 6 c-3 -5 -13 -10 -21 -10 -8 0 -12 5 -9 10 3 6 13 10 21
10 8 0 12 -4 9 -10z m2025 -15 c8 5 11 4 7 -2 -11 -18 -45 -22 -64 -7 -13 11
-14 14 -3 12 8 -2 18 -7 22 -13 4 -5 8 -1 8 10 0 15 2 17 9 6 5 -8 14 -10 21
-6z m-3090 -5 c0 -5 -10 -10 -22 -10 -19 0 -20 2 -8 10 19 13 30 13 30 0z
m-510 -4 c0 -2 -9 -6 -20 -9 -11 -3 -20 -1 -20 4 0 5 9 9 20 9 11 0 20 -2 20
-4z m570 -6 c0 -5 -4 -10 -9 -10 -6 0 -13 5 -16 10 -3 6 1 10 9 10 9 0 16 -4
16 -10z m1035 0 c-3 -5 -12 -10 -18 -10 -7 0 -6 4 3 10 19 12 23 12 15 0z
m544 -2 c11 -10 14 -10 18 0 3 6 12 12 21 12 13 0 11 -4 -6 -16 -30 -20 -82
-35 -82 -23 0 5 12 9 28 9 26 1 26 1 8 15 -11 8 -15 15 -10 15 6 0 16 -6 23
-12z m961 -3 c16 -19 10 -19 -26 0 -25 13 -26 15 -8 15 12 0 27 -7 34 -15z
m50 5 c0 -5 -4 -10 -10 -10 -5 0 -10 5 -10 10 0 6 5 10 10 10 6 0 10 -4 10
-10z m-220 -10 c0 -5 -5 -10 -11 -10 -5 0 -7 5 -4 10 3 6 8 10 11 10 2 0 4 -4
4 -10z m3410 -4 c0 -2 -7 -7 -16 -10 -8 -3 -12 -2 -9 4 6 10 25 14 25 6z
m-6365 -16 c-3 -5 -14 -10 -23 -10 -15 0 -15 2 -2 10 20 13 33 13 25 0z m3612
4 c-3 -3 -12 -4 -19 -1 -8 3 -5 6 6 6 11 1 17 -2 13 -5z m3123 -4 c0 -5 -7
-10 -16 -10 -8 0 -12 5 -9 10 3 6 10 10 16 10 5 0 9 -4 9 -10z m-3373 -6 c-3
-3 -12 -4 -19 -1 -8 3 -5 6 6 6 11 1 17 -2 13 -5z"/>
<path d="M5875 3200 c-3 -5 -1 -10 4 -10 6 0 11 5 11 10 0 6 -2 10 -4 10 -3 0
-8 -4 -11 -10z"/>
<path d="M5520 3170 c-9 -6 -10 -10 -3 -10 6 0 15 5 18 10 8 12 4 12 -15 0z"/>
<path d="M5842 3020 c0 -14 2 -19 5 -12 2 6 2 18 0 25 -3 6 -5 1 -5 -13z"/>
<path d="M5774 2734 c-10 -8 -13 -12 -5 -8 10 5 11 1 6 -16 -4 -14 -3 -20 3
-16 8 4 24 56 18 56 -1 0 -11 -7 -22 -16z"/>
<path d="M5282 2688 c-17 -17 -15 -32 9 -62 25 -32 18 -47 -11 -21 -16 15 -20
15 -20 3 0 -22 37 -51 55 -44 27 10 29 36 5 68 -25 34 -19 50 10 23 17 -16 20
-16 20 -2 0 9 -10 23 -22 31 -27 19 -31 19 -46 4z"/>
<path d="M5372 2638 c-18 -18 -15 -39 10 -65 25 -27 17 -44 -11 -19 -16 15
-19 15 -24 1 -8 -19 36 -50 58 -41 27 10 29 36 5 68 -22 30 -23 51 0 23 16
-19 30 -19 30 -1 0 7 -11 21 -25 30 -29 19 -28 19 -43 4z"/>
<path d="M5650 2607 c0 -9 4 -18 9 -21 5 -4 8 1 7 9 -3 21 -16 31 -16 12z"/>
<path d="M5702 2601 c-11 -6 -10 -10 4 -15 20 -8 32 0 18 14 -5 5 -15 5 -22 1z"/>
<path d="M5507 2594 c-3 -3 -3 -13 0 -21 3 -8 -3 -21 -16 -29 -40 -29 -24 -66
35 -78 26 -6 32 -4 37 14 7 27 4 35 -10 32 -7 -2 -13 4 -13 12 0 8 -3 22 -7
31 -5 14 -2 16 15 10 16 -4 22 -2 22 8 0 18 -49 35 -63 21z m13 -90 c0 -8 -4
-14 -10 -14 -5 0 -10 9 -10 21 0 11 5 17 10 14 6 -3 10 -13 10 -21z"/>
<path d="M5478 2273 c7 -3 16 -2 19 1 4 3 -2 6 -13 5 -11 0 -14 -3 -6 -6z"/>
<path d="M5341 2214 c13 -16 29 -19 29 -5 0 5 -9 11 -21 14 -16 4 -18 3 -8 -9z"/>
<path d="M5316 1304 c-11 -8 -16 -14 -10 -14 13 0 39 18 34 24 -3 2 -14 -2
-24 -10z"/>
<path d="M6428 283 c6 -2 18 -2 25 0 6 3 1 5 -13 5 -14 0 -19 -2 -12 -5z"/>
<path d="M6370 259 c0 -5 5 -7 10 -4 6 3 10 8 10 11 0 2 -4 4 -10 4 -5 0 -10
-5 -10 -11z"/>
<path d="M4830 4305 c0 -14 4 -25 9 -25 4 0 6 11 3 25 -2 14 -6 25 -8 25 -2 0
-4 -11 -4 -25z"/>
<path d="M2094 2741 c0 -11 6 -17 13 -14 6 3 9 11 6 19 -7 20 -19 17 -19 -5z"/>
<path d="M2160 2734 c0 -9 -9 -18 -20 -21 -11 -3 -17 -10 -14 -15 4 -5 13 -3
22 5 10 8 22 16 29 18 8 3 7 8 -3 17 -12 11 -14 10 -14 -4z"/>
<path d="M8752 2725 c-18 -10 -20 -14 -8 -18 8 -3 20 1 26 8 7 8 16 12 21 9 5
-3 9 0 9 5 0 14 -19 12 -48 -4z"/>
<path d="M2230 2720 c0 -5 9 -10 19 -10 11 0 23 5 26 10 4 6 -5 10 -19 10 -14
0 -26 -4 -26 -10z"/>
<path d="M2458 2706 c-10 -7 -18 -22 -18 -32 0 -16 3 -15 17 6 9 14 22 28 27
32 7 5 7 8 1 8 -5 -1 -18 -7 -27 -14z"/>
<path d="M8098 2713 c7 -3 16 -2 19 1 4 3 -2 6 -13 5 -11 0 -14 -3 -6 -6z"/>
<path d="M3283 2695 c-17 -19 -16 -26 1 -19 15 6 30 34 18 34 -4 -1 -13 -7
-19 -15z"/>
<path d="M2087 2683 c3 -10 3 -15 -2 -11 -4 4 -20 1 -36 -7 -15 -8 -36 -15
-45 -15 -14 0 -14 3 -4 15 11 13 10 14 -6 8 -10 -3 -28 -12 -40 -20 -11 -7
-24 -10 -27 -7 -9 9 -38 -16 -31 -27 3 -5 0 -8 -7 -7 -6 2 -13 -1 -15 -7 -2
-6 17 -11 46 -12 37 -1 50 3 50 13 0 8 -10 14 -22 14 -12 0 -19 3 -15 6 3 4
26 6 51 6 25 -1 48 3 51 8 3 5 12 7 20 3 8 -3 15 0 15 5 0 6 9 14 20 17 23 7
27 35 5 35 -9 0 -12 -6 -8 -17z"/>
<path d="M2175 2690 c-3 -5 -1 -10 4 -10 6 0 11 5 11 10 0 6 -2 10 -4 10 -3 0
-8 -4 -11 -10z"/>
<path d="M8810 2690 c0 -5 5 -10 10 -10 6 0 10 5 10 10 0 6 -4 10 -10 10 -5 0
-10 -4 -10 -10z"/>
<path d="M8945 2690 c3 -5 11 -10 16 -10 6 0 7 5 4 10 -3 6 -11 10 -16 10 -6
0 -7 -4 -4 -10z"/>
<path d="M8840 2676 c0 -8 7 -17 16 -20 25 -9 26 -2 4 17 -16 13 -20 14 -20 3z"/>
<path d="M8890 2681 c0 -5 9 -11 20 -14 13 -3 20 0 20 9 0 8 -9 14 -20 14 -11
0 -20 -4 -20 -9z"/>
<path d="M2355 2670 c-3 -6 1 -7 9 -4 18 7 21 14 7 14 -6 0 -13 -4 -16 -10z"/>
<path d="M8417 2662 c-4 -5 0 -15 8 -22 7 -6 11 -18 8 -25 -3 -9 5 -19 21 -26
14 -7 26 -20 26 -29 0 -10 7 -23 15 -30 8 -7 15 -21 15 -31 0 -11 6 -19 13
-19 14 0 47 54 47 76 0 9 4 13 8 10 4 -2 14 -1 22 5 12 7 10 9 -7 9 -14 0 -23
6 -23 16 0 12 -7 15 -30 12 -32 -5 -41 6 -13 16 13 5 14 9 3 19 -10 9 -13 9
-17 0 -3 -7 -9 -13 -14 -13 -6 0 -7 5 -4 10 9 14 -9 12 -24 -2 -10 -11 -16 -8
-30 11 -11 14 -21 19 -24 13z m108 -92 c3 -6 -1 -7 -9 -4 -18 7 -21 14 -7 14
6 0 13 -4 16 -10z"/>
<path d="M1237 2640 c-9 -11 -23 -20 -31 -20 -16 0 -26 -21 -26 -56 0 -21 3
-22 25 -14 27 10 33 2 13 -18 -9 -9 0 -12 41 -12 34 0 58 5 68 16 15 14 12 15
-32 13 -55 -4 -73 15 -25 25 17 3 29 10 26 15 -3 5 1 14 9 21 18 15 10 30 -16
30 -10 0 -19 5 -19 10 0 16 -14 12 -33 -10z m43 -30 c0 -5 -4 -10 -10 -10 -5
0 -10 5 -10 10 0 6 5 10 10 10 6 0 10 -4 10 -10z"/>
<path d="M8995 2644 c-9 -9 -14 -23 -11 -30 3 -8 1 -14 -4 -14 -6 0 -10 6 -10
13 0 14 -39 41 -47 33 -3 -3 -2 -17 1 -32 4 -14 10 -24 13 -21 3 4 19 -1 36
-10 22 -11 32 -12 35 -4 2 6 15 11 30 11 20 0 23 3 14 12 -13 13 -16 29 -4 27
19 -3 33 2 28 10 -3 5 -15 7 -26 4 -11 -3 -20 0 -20 6 0 16 -16 14 -35 -5z"/>
<path d="M1185 2640 c-3 -5 -1 -10 4 -10 6 0 11 5 11 10 0 6 -2 10 -4 10 -3 0
-8 -4 -11 -10z"/>
<path d="M2110 2640 c12 -8 12 -10 -5 -10 -11 0 -31 -7 -45 -15 -33 -19 -24
-19 33 1 50 17 62 34 25 34 -19 0 -20 -2 -8 -10z"/>
<path d="M1350 2629 c0 -5 5 -7 10 -4 6 3 10 8 10 11 0 2 -4 4 -10 4 -5 0 -10
-5 -10 -11z"/>
<path d="M2185 2630 c-3 -5 -1 -10 4 -10 6 0 11 5 11 10 0 6 -2 10 -4 10 -3 0
-8 -4 -11 -10z"/>
<path d="M9095 2630 c3 -5 10 -10 16 -10 5 0 9 5 9 10 0 6 -7 10 -16 10 -8 0
-12 -4 -9 -10z"/>
<path d="M588 2623 c7 -3 16 -2 19 1 4 3 -2 6 -13 5 -11 0 -14 -3 -6 -6z"/>
<path d="M638 2623 c12 -2 32 -2 45 0 12 2 2 4 -23 4 -25 0 -35 -2 -22 -4z"/>
<path d="M7640 2626 c0 -2 7 -9 15 -16 13 -11 14 -10 9 4 -5 14 -24 23 -24 12z"/>
<path d="M1587 2606 c-8 -9 -17 -21 -20 -28 -3 -9 -9 -7 -21 7 -13 16 -15 17
-10 2 5 -13 2 -16 -10 -11 -9 3 -23 1 -31 -6 -8 -7 -34 -11 -60 -8 -25 2 -45
2 -45 1 0 -12 87 -41 135 -46 59 -6 60 -6 60 18 0 14 -3 25 -7 25 -4 0 -5 7
-2 15 4 8 10 13 14 10 8 -5 24 25 16 32 -2 2 -11 -3 -19 -11z"/>
<path d="M2830 2614 c0 -7 -12 -15 -27 -19 -21 -5 -24 -8 -12 -16 11 -7 10 -9
-6 -10 -11 0 -14 -3 -7 -6 7 -3 18 -1 25 5 7 5 21 6 32 2 23 -8 78 8 70 20 -3
5 -16 7 -30 4 -16 -3 -27 2 -34 13 -6 10 -11 13 -11 7z"/>
<path d="M6990 2610 c0 -5 5 -10 11 -10 5 0 7 5 4 10 -3 6 -8 10 -11 10 -2 0
-4 -4 -4 -10z"/>
<path d="M7070 2609 c0 -5 5 -7 10 -4 6 3 10 8 10 11 0 2 -4 4 -10 4 -5 0 -10
-5 -10 -11z"/>
<path d="M9172 2600 c-12 -11 -16 -12 -20 -2 -4 14 -32 17 -32 3 0 -5 -17 -14
-37 -20 l-38 -10 40 4 c22 2 59 4 83 5 30 0 42 4 42 15 0 9 6 12 17 8 10 -4
14 -2 9 5 -9 15 -46 11 -64 -8z"/>
<path d="M3020 2599 c0 -5 8 -9 18 -9 12 0 13 -3 5 -8 -9 -6 -7 -11 7 -20 12
-7 21 -8 25 -2 3 6 2 10 -4 10 -5 0 -8 8 -6 18 2 12 -4 17 -21 18 -13 1 -24
-2 -24 -7z"/>
<path d="M7040 2600 c-8 -4 -26 -13 -40 -18 -22 -9 -21 -10 15 -8 29 1 41 7
43 19 4 19 3 19 -18 7z"/>
<path d="M7792 2597 c-10 -11 -9 -17 3 -27 24 -20 45 4 24 26 -14 13 -17 13
-27 1z"/>
<path d="M8075 2599 c-10 -15 3 -25 16 -12 7 7 7 13 1 17 -6 3 -14 1 -17 -5z"/>
<path d="M8336 2584 l-19 -26 27 17 c14 9 23 21 20 26 -7 12 -6 12 -28 -17z"/>
<path d="M1345 2590 c3 -5 12 -7 20 -3 21 7 19 13 -6 13 -11 0 -18 -4 -14 -10z"/>
<path d="M2925 2590 c3 -5 8 -10 11 -10 2 0 4 5 4 10 0 6 -5 10 -11 10 -5 0
-7 -4 -4 -10z"/>
<path d="M3106 2578 c-8 -33 -8 -32 -24 -44 -8 -6 -12 -16 -9 -21 4 -6 0 -16
-8 -23 -18 -15 -20 -40 -2 -40 7 -1 5 -6 -5 -14 -10 -7 -15 -16 -12 -19 10
-10 11 -57 2 -63 -6 -4 -5 -9 2 -14 9 -5 9 -19 2 -51 l-10 -44 -1 41 c-1 28
-6 44 -17 48 -14 5 -14 7 0 22 9 8 16 21 16 27 0 8 -3 7 -9 -2 -5 -7 -11 -9
-14 -4 -4 5 -16 9 -29 7 -13 -1 -38 -3 -57 -3 -26 -1 -31 -4 -23 -14 9 -10 4
-12 -23 -9 -23 3 -35 0 -35 -8 0 -7 8 -10 20 -7 11 3 20 2 20 -3 0 -12 -64
-19 -71 -7 -4 5 -12 6 -19 2 -9 -6 -9 -9 1 -15 10 -7 10 -12 -2 -26 -13 -16
-12 -16 11 -4 22 12 24 12 12 -2 -10 -13 -10 -17 0 -21 10 -4 10 -8 -2 -16
-21 -15 -33 -13 -26 4 3 8 1 15 -4 15 -6 0 -10 -6 -10 -13 0 -8 -7 -14 -15
-14 -18 0 -18 2 -6 25 5 9 15 38 22 63 11 40 18 48 46 57 22 7 31 7 27 0 -4
-6 3 -5 15 1 11 7 21 19 21 28 0 12 -7 14 -34 10 -26 -4 -34 -2 -30 8 3 7 0
16 -7 21 -8 4 -10 3 -5 -4 11 -19 -5 -14 -19 5 -12 16 -14 16 -29 0 -10 -9
-22 -17 -28 -17 -6 0 -1 9 11 19 19 17 21 22 10 34 -21 22 -48 10 -43 -20 3
-16 1 -22 -6 -18 -12 7 -40 -12 -40 -26 0 -5 7 -9 15 -9 8 0 15 -7 15 -15 0
-8 3 -14 8 -13 10 3 52 -25 52 -35 0 -10 -53 4 -62 16 -4 7 -11 7 -21 -2 -10
-8 -17 -9 -22 -1 -9 15 -25 12 -25 -4 0 -8 -7 -16 -15 -20 -8 -3 -15 -10 -15
-16 0 -6 4 -9 8 -6 14 9 33 -10 27 -27 -4 -9 -13 -13 -23 -10 -11 5 -14 2 -9
-10 4 -11 2 -14 -9 -10 -16 6 -19 33 -4 33 7 0 7 6 0 20 -7 13 -20 20 -38 19
l-27 0 24 -10 c23 -9 24 -11 7 -27 -14 -15 -18 -15 -26 -2 -8 12 -10 12 -16
-3 -4 -10 -12 -16 -18 -14 -7 3 -20 -1 -31 -9 -10 -8 -16 -14 -12 -14 4 0 3
-9 -3 -20 -7 -13 -19 -19 -40 -17 -34 2 -37 9 -15 27 14 11 19 7 16 -12 -2
-15 17 -8 23 8 9 22 -1 34 -30 34 -14 0 -24 6 -24 14 0 8 -7 17 -16 20 -8 3
-13 2 -9 -3 7 -13 -45 -53 -61 -47 -7 3 -18 -2 -24 -10 -15 -17 -34 -19 -23
-1 13 21 12 37 -4 37 -9 0 -13 -6 -10 -14 4 -10 1 -13 -7 -10 -8 3 -17 0 -21
-6 -10 -15 24 -39 56 -40 35 0 40 -8 21 -30 -12 -14 -19 -17 -29 -8 -9 7 -13
7 -13 -1 0 -6 -5 -11 -10 -11 -6 0 -8 11 -4 25 3 14 2 25 -4 25 -5 0 -12 -9
-15 -20 -3 -12 -14 -20 -26 -20 -28 0 -27 18 2 30 l22 9 -22 0 c-27 1 -27 2
-9 46 10 24 22 35 35 35 35 0 23 20 -11 21 -18 1 -39 1 -46 0 -8 -1 -19 2 -26
8 -9 8 -27 1 -65 -26 -47 -33 -54 -35 -62 -20 -6 9 -15 17 -20 17 -6 0 -18 7
-26 16 -11 11 -26 14 -50 9 -27 -5 -33 -3 -33 12 0 15 9 18 58 18 54 0 57 -1
57 -24 0 -14 6 -26 14 -29 9 -3 11 2 6 17 -3 12 -2 21 3 21 6 0 12 -6 15 -12
3 -10 7 -10 19 0 9 7 20 12 24 10 5 -1 19 3 32 10 19 11 20 16 11 33 -10 19
-8 20 13 15 23 -7 23 -7 -2 9 l-25 16 27 -5 c22 -5 25 -3 21 14 -8 31 -22 34
-54 11 -16 -12 -29 -17 -29 -12 0 5 7 12 16 15 8 3 13 10 10 15 -9 13 31 20
44 7 8 -8 13 -7 20 4 9 13 11 13 20 0 6 -8 8 -23 6 -33 -4 -15 -2 -16 10 -6
11 9 12 15 2 26 -15 18 10 37 28 22 9 -7 14 -4 19 11 5 17 10 19 21 9 8 -6 14
-20 14 -30 0 -11 5 -19 11 -19 8 0 9 11 5 32 -8 40 -10 41 -45 41 -21 0 -32 7
-40 23 -8 18 -16 22 -44 19 -20 -2 -43 -8 -54 -13 -10 -5 -51 -8 -90 -5 -60 3
-73 2 -73 -11 0 -8 8 -16 18 -19 9 -2 -7 -8 -36 -12 -29 -4 -55 -13 -59 -19
-10 -16 -3 -90 10 -99 9 -6 9 -10 0 -14 -21 -8 -16 -63 5 -64 10 0 12 -3 4 -6
-6 -2 -10 -9 -6 -14 3 -5 1 -8 -4 -7 -6 2 -24 -12 -41 -31 -25 -28 -32 -31
-37 -18 -3 9 -3 21 1 27 3 5 -1 10 -9 10 -19 0 -30 -17 -16 -25 5 -3 10 -12
10 -18 0 -8 -3 -8 -9 2 -14 22 -21 -3 -11 -41 11 -37 47 -62 75 -52 11 5 15
-1 15 -20 0 -18 5 -26 18 -26 10 0 23 -5 30 -12 9 -9 12 -9 12 0 0 7 10 12 23
12 20 -1 20 -2 4 -11 -23 -14 -11 -32 16 -23 12 4 33 8 47 9 14 1 38 7 54 14
16 6 31 10 33 8 4 -5 -51 -29 -64 -29 -4 0 -15 -5 -23 -12 -21 -18 -66 -18
-80 -1 -7 8 -19 15 -27 15 -15 0 -88 -58 -88 -69 -1 -17 -19 -31 -38 -30 l-22
0 23 9 c12 5 22 12 22 14 0 3 -7 3 -16 -1 -10 -4 -22 1 -30 12 -7 9 -20 15
-28 12 -20 -8 -28 3 -14 20 17 21 3 25 -16 4 -16 -17 -16 -20 0 -35 9 -9 13
-20 10 -24 -4 -3 -11 0 -16 7 -5 9 -15 11 -26 7 -16 -6 -16 -8 -4 -16 12 -8 9
-10 -10 -10 -20 0 -22 -2 -10 -10 8 -5 10 -10 5 -10 -6 0 -17 6 -23 12 -10 10
-17 10 -32 0 -11 -7 -20 -8 -20 -3 0 5 9 13 20 16 11 4 18 11 14 16 -3 5 -11
6 -17 2 -7 -4 -3 6 7 22 11 17 25 34 33 38 22 13 15 27 -14 27 -25 0 -25 1 -9
19 10 11 15 24 12 30 -3 5 10 19 29 31 19 12 35 22 35 23 0 1 -18 2 -41 2 -28
0 -45 -6 -54 -18 -9 -13 -14 -15 -17 -5 -4 10 -8 10 -22 -1 -17 -14 -16 -16 5
-31 14 -12 18 -19 10 -24 -6 -4 -11 -2 -11 3 0 6 -9 11 -20 11 -14 0 -19 6
-17 21 2 11 10 25 18 30 19 12 7 11 -25 -1 -20 -7 -26 -17 -26 -38 l0 -29 -67
2 c-69 2 -87 -5 -89 -37 -2 -22 4 -23 28 -1 10 9 31 18 46 19 26 3 26 2 8 -12
-11 -8 -26 -14 -33 -14 -7 0 -13 -4 -13 -9 0 -5 10 -7 23 -5 20 4 21 4 2 -5
-11 -5 -32 -10 -47 -10 -26 -1 -52 -21 -27 -21 7 0 10 -2 8 -5 -3 -2 -15 -2
-27 2 -19 5 -20 7 -7 25 12 18 12 24 -1 44 -9 13 -13 28 -9 34 4 6 -4 10 -22
9 -15 -1 -41 2 -58 5 -26 6 -32 3 -47 -24 -10 -18 -18 -38 -18 -46 0 -8 -4
-14 -10 -14 -5 0 -10 7 -10 16 0 10 -5 14 -15 10 -12 -4 -13 -2 -6 12 9 17 4
18 -64 18 -64 -1 -72 1 -64 15 4 9 5 19 2 23 -3 3 -2 6 4 6 6 0 13 6 16 13 3
8 -1 14 -9 14 -8 0 -14 -4 -14 -9 0 -4 -4 -8 -9 -8 -5 0 -7 10 -4 23 4 17 3
19 -6 7 -5 -8 -16 -15 -23 -16 -53 -4 -51 -3 -34 -20 14 -14 14 -34 0 -34 -3
0 -2 5 1 10 3 6 -3 10 -15 10 -12 0 -18 -4 -15 -10 3 -5 1 -10 -5 -10 -19 0
-40 -27 -40 -52 0 -17 3 -19 9 -9 5 7 14 10 20 6 9 -5 9 -10 0 -22 -15 -18
-18 -63 -5 -63 6 0 5 -5 -1 -11 -7 -7 -19 -8 -30 -4 -10 5 -24 7 -30 6 -7 -1
-13 7 -13 18 0 14 -5 19 -15 14 -9 -3 -15 -2 -14 3 1 5 1 15 0 23 -1 17 -16 5
-16 -12 0 -7 -11 -11 -25 -9 -18 2 -21 0 -11 -6 10 -8 6 -12 -18 -17 -17 -4
-29 -10 -27 -14 3 -4 -4 -7 -14 -8 -11 -1 -22 2 -25 8 -4 5 1 9 9 9 9 0 16 5
16 10 0 6 6 10 13 10 8 0 14 7 14 15 0 8 -4 12 -9 9 -5 -3 -19 2 -30 13 -12
10 -18 12 -13 4 6 -11 3 -13 -14 -8 -18 4 -20 3 -10 -9 7 -8 7 -14 1 -14 -5 0
-16 7 -23 17 -11 13 -11 17 -1 20 6 3 9 9 6 14 -3 6 1 21 10 34 21 32 21 32
-15 40 -28 6 -29 8 -15 24 9 10 14 20 10 23 -3 3 8 16 23 28 27 22 24 22 -21
4 -14 -5 -17 -4 -12 4 5 9 0 9 -19 2 -15 -6 -31 -8 -36 -5 -5 3 -18 1 -29 -5
-12 -6 -20 -7 -20 -1 0 5 -15 7 -34 4 -21 -3 -36 -1 -41 7 -5 8 -4 11 3 6 6
-3 13 3 17 14 3 11 11 20 16 20 5 0 9 5 9 11 0 6 -7 9 -15 6 -22 -9 -26 6 -10
36 10 20 11 27 2 27 -7 0 -4 5 5 11 10 5 23 20 29 32 l12 22 -23 -20 -23 -20
5 28 c3 15 2 27 -1 28 -3 0 -16 2 -27 5 -12 2 -27 -3 -34 -11 -7 -8 -16 -12
-21 -9 -5 3 -12 -2 -15 -10 -3 -9 -14 -16 -23 -17 -10 0 -11 -2 -3 -6 14 -5
16 -23 3 -23 -5 0 -17 7 -25 15 -14 14 -16 14 -20 -7 -3 -13 -7 -36 -11 -51
-4 -21 -3 -27 6 -21 8 4 9 3 5 -4 -5 -9 -13 -9 -28 -1 -19 10 -20 9 -15 -10 3
-12 1 -19 -4 -15 -6 3 -16 0 -24 -6 -8 -7 -15 -9 -15 -4 1 14 37 54 50 54 6 0
9 4 6 9 -4 5 -1 11 4 13 7 2 8 12 2 27 -7 20 -10 21 -15 8 -4 -10 -13 -17 -21
-17 -7 0 -16 -7 -20 -15 -3 -8 -1 -15 4 -15 6 0 5 -10 -1 -24 -7 -14 -17 -23
-23 -22 -6 2 -8 1 -3 -1 4 -3 7 -9 7 -15 0 -6 8 -17 18 -25 10 -9 11 -12 2 -7
-8 4 -12 4 -8 -1 11 -12 -11 -35 -33 -35 -10 0 -22 -8 -28 -17 -9 -16 -11 -16
-29 5 -11 12 -22 22 -24 22 -3 0 -6 -34 -7 -76 l-1 -76 39 29 c22 15 39 31 38
34 -2 7 4 9 23 9 15 0 -40 -59 -61 -65 -11 -4 -19 -13 -19 -21 0 -8 -4 -14
-10 -14 -6 0 -10 -71 -10 -193 l0 -193 112 3 c62 1 145 5 183 8 89 7 244 7
267 -1 10 -3 18 -1 18 4 0 17 43 22 54 6 10 -12 20 -12 76 8 36 12 70 27 77
34 26 26 265 41 288 18 7 -7 30 -17 51 -23 21 -6 53 -19 69 -29 38 -24 102
-27 122 -6 12 11 18 12 23 4 5 -8 9 -7 13 4 4 9 13 16 22 16 8 0 15 9 15 20 0
11 5 20 11 20 6 0 8 -9 4 -20 -7 -23 -6 -24 29 -10 23 8 26 7 26 -10 0 -29 44
-44 86 -30 19 6 66 11 106 10 87 -2 109 1 102 11 -2 4 4 13 15 18 25 14 34 14
26 1 -4 -6 7 -10 24 -10 17 0 31 -4 31 -10 0 -5 7 -10 16 -10 8 0 13 -4 10 -9
-14 -23 120 -14 159 10 6 4 24 10 42 13 17 4 42 18 55 30 13 13 42 26 65 29
23 4 50 10 60 13 16 6 16 5 -2 -10 -17 -15 -17 -17 -2 -12 15 5 16 2 7 -14 -9
-16 -8 -20 5 -20 8 0 15 -4 15 -10 0 -5 -6 -10 -12 -10 -10 0 -9 -3 1 -9 11
-7 11 -9 0 -14 -8 -4 4 -4 26 -1 22 3 55 12 73 20 18 8 36 13 41 9 28 -17 172
-26 249 -16 28 4 52 4 52 1 0 -9 287 -5 362 5 33 4 77 3 105 -3 26 -6 67 -13
90 -16 43 -5 57 2 126 68 12 12 22 15 24 9 3 -7 18 -4 43 8 43 21 66 24 74 10
4 -5 -5 -8 -19 -6 -14 1 -28 -1 -31 -6 -7 -11 42 -23 62 -15 11 4 15 2 11 -6
-3 -9 6 -14 26 -15 16 -1 27 1 23 5 -4 4 -13 7 -19 7 -7 1 -11 6 -10 13 10 48
-59 91 -93 58 -22 -23 -50 -36 -58 -29 -3 4 8 13 26 21 27 12 29 16 14 20 -10
2 -22 -1 -26 -8 -6 -9 -15 -8 -38 4 -17 9 -37 13 -45 10 -26 -10 -31 18 -7 36
21 16 21 17 5 34 -10 9 -24 15 -32 12 -8 -3 -24 0 -36 8 -25 16 -127 27 -127
15 0 -5 12 -9 26 -9 27 0 64 -32 64 -55 0 -7 -7 -16 -16 -19 -12 -5 -15 -2
-10 10 5 13 2 15 -18 10 -16 -4 -26 -1 -30 9 -3 8 -2 14 2 14 16 -3 32 2 32 9
0 4 -15 7 -32 6 -29 -1 -33 -4 -33 -30 0 -22 5 -30 22 -32 13 -2 20 -8 17 -16
-3 -8 2 -16 10 -19 9 -4 16 -1 16 5 0 6 3 8 6 5 13 -13 -19 -37 -47 -37 -32 0
-39 14 -13 24 9 4 14 9 11 13 -4 3 -18 -2 -32 -11 -23 -15 -27 -15 -41 -1 -14
13 -14 15 0 15 10 0 13 7 11 22 -6 28 -24 40 -53 33 -15 -4 -21 -2 -17 5 13
22 -14 9 -32 -15 -17 -24 -20 -25 -38 -10 -16 12 -17 14 -2 9 18 -7 23 10 11
41 -5 13 -8 14 -15 3 -7 -10 -9 -10 -9 0 0 6 -9 12 -19 12 -10 0 -21 7 -25 15
-3 8 -2 14 2 14 27 -4 35 2 17 15 -11 8 -18 26 -18 45 0 17 -4 31 -9 31 -8 0
-12 -16 -9 -34 1 -4 -9 -6 -23 -2 -14 3 -28 2 -31 -4 -12 -20 -30 -8 -49 32
-11 23 -21 37 -24 30 -2 -7 -8 -12 -13 -12 -6 0 -8 4 -5 8 3 5 -5 14 -17 19
-12 6 -41 19 -64 31 -29 14 -43 17 -47 9 -3 -9 -5 -8 -5 1 -1 19 -18 14 -24
-8 -3 -11 -10 -20 -16 -20 -14 0 -14 17 -1 25 16 10 12 41 -7 56 -15 13 -16
11 -9 -14 7 -29 -6 -57 -27 -57 -5 0 -2 9 8 20 16 18 16 20 2 20 -10 0 -17 4
-17 9 0 6 -12 4 -27 -4 -15 -8 -32 -11 -37 -7 -18 12 -46 8 -57 -8 -9 -13 -10
-13 -6 0 2 8 14 20 26 26 14 7 19 14 12 18 -6 4 -15 4 -21 1 -5 -3 -10 1 -10
10 0 12 -6 15 -19 10 -11 -3 -22 -1 -26 5 -12 19 -27 11 -20 -11 5 -15 4 -19
-5 -14 -9 6 -9 3 0 -14 6 -12 16 -19 22 -15 7 5 7 8 0 13 -6 4 -8 12 -4 19 6
8 12 7 23 -7 13 -14 14 -21 4 -34 -9 -13 -18 -15 -43 -7 -19 5 -34 5 -37 -1
-4 -5 1 -9 9 -9 9 0 16 -5 16 -11 0 -6 -9 -8 -21 -4 -15 5 -19 4 -15 -4 4 -6
0 -14 -9 -17 -19 -8 -34 4 -18 14 6 4 13 13 15 21 4 17 -32 24 -49 9 -7 -6
-13 -7 -13 -4 0 4 -10 0 -22 -8 -12 -9 -29 -16 -37 -16 -11 0 -9 5 6 15 22 15
22 45 1 45 -6 0 -8 -7 -4 -15 3 -8 1 -15 -4 -15 -6 0 -10 4 -10 9 0 5 -11 12
-25 15 -14 4 -25 13 -25 21 0 21 -10 19 -37 -7 -13 -12 -23 -17 -22 -12 0 15
59 57 59 42 0 -10 3 -9 11 2 8 12 9 10 4 -7 -6 -23 8 -32 20 -13 10 16 34 12
52 -10 20 -23 38 -27 30 -6 -3 8 1 20 9 27 13 10 17 10 25 -2 5 -8 9 -17 9
-21 0 -15 25 -3 32 15 4 9 14 17 23 17 9 0 15 9 15 24 0 19 5 24 23 23 12 0
25 -6 29 -11 4 -6 15 -3 27 8 11 10 32 20 46 22 l26 2 -25 -25 c-22 -22 -24
-27 -11 -40 8 -8 19 -11 25 -8 16 10 12 25 -5 19 -11 -5 -13 -2 -9 10 6 15 23
15 71 1 13 -4 26 22 17 37 -3 5 3 18 15 29 21 20 47 26 36 9 -5 -9 15 -15 38
-11 4 1 5 -13 2 -30 l-6 -32 26 17 c25 16 25 16 25 -14 0 -17 -6 -31 -12 -31
-7 -1 3 -4 22 -8 22 -4 35 -12 35 -21 0 -8 8 -18 18 -23 21 -8 45 2 30 12 -6
3 -1 15 10 26 11 11 16 14 12 6 -6 -11 -4 -13 8 -8 13 5 15 2 7 -17 -7 -20 -6
-23 15 -20 18 1 22 -2 18 -13 -5 -13 7 -15 81 -12 64 3 91 8 99 19 14 18 47
20 63 5 9 -7 9 -12 0 -17 -6 -4 41 -8 105 -8 l116 0 -4 24 c-6 29 23 76 46 76
9 0 25 10 35 22 18 21 19 21 32 3 8 -10 14 -23 14 -27 0 -15 -44 -27 -57 -16
-9 7 -16 3 -24 -16 -7 -14 -15 -23 -20 -21 -4 3 -2 -6 4 -20 11 -23 17 -25 77
-25 36 0 72 5 80 10 11 7 11 10 2 10 -9 0 -10 5 -4 18 5 9 7 23 5 30 -3 6 0
12 6 12 6 0 11 6 11 14 0 8 6 17 13 19 6 3 -3 6 -20 6 -22 1 -33 6 -33 16 0
18 26 20 36 3 5 -8 11 -6 20 7 13 18 48 23 74 12 10 -5 19 1 26 17 9 20 9 26
-2 30 -8 3 -14 12 -14 21 0 8 -9 15 -20 15 -26 0 -25 -8 2 -37 18 -19 19 -23
5 -23 -9 0 -21 9 -27 21 -9 16 -18 19 -36 15 -29 -8 -33 10 -4 19 11 4 18 11
14 16 -3 5 -15 7 -26 3 -16 -5 -20 -3 -15 10 11 27 -11 28 -60 2 -49 -27 -70
-27 -37 0 18 14 18 15 -4 4 -35 -17 -21 -34 34 -41 44 -5 45 -6 12 -7 -21 -1
-38 -6 -38 -11 0 -5 9 -7 20 -4 12 3 20 0 20 -7 0 -8 -10 -11 -29 -8 -17 2
-28 1 -25 -4 10 -15 -8 -31 -18 -17 -7 11 -9 11 -7 -1 3 -34 -2 -48 -21 -53
-17 -4 -20 -2 -15 14 8 25 1 24 -25 -3 -12 -13 -16 -24 -10 -28 6 -4 4 -14 -6
-26 -13 -16 -15 -16 -10 -1 8 27 -3 20 -14 -9 -8 -20 -13 -23 -27 -16 -11 7
-21 6 -30 -4 -8 -7 -21 -10 -29 -7 -9 3 -20 0 -24 -8 -5 -7 -12 -10 -15 -7 -4
4 2 17 14 29 12 13 21 28 21 33 0 6 4 5 9 -3 13 -21 29 -5 24 24 -3 13 -9 22
-14 19 -5 -3 -6 -10 -3 -16 4 -6 2 -8 -4 -4 -6 3 -13 2 -17 -4 -3 -5 -15 -10
-26 -10 -10 0 -27 -8 -37 -17 -19 -18 -68 -30 -58 -14 3 5 -3 11 -14 14 -10 3
-21 0 -23 -7 -5 -15 -37 11 -37 30 0 8 -5 14 -11 14 -5 0 -7 5 -4 10 4 6 11 8
16 5 5 -4 9 -1 9 4 0 6 -9 11 -19 11 -11 0 -23 5 -27 11 -5 8 1 10 20 7 14 -3
27 -1 27 3 1 5 2 14 3 21 2 18 25 21 32 4 3 -9 12 -16 20 -16 8 0 14 -8 14
-17 1 -17 2 -17 14 0 14 18 14 18 20 0 8 -25 51 -26 93 -2 44 25 52 24 46 -3
-5 -21 -3 -21 27 7 29 27 60 80 60 103 0 15 -53 12 -77 -4 -29 -18 -33 -18
-33 6 0 10 -8 24 -17 29 -10 6 -12 11 -5 11 20 0 14 14 -12 26 -14 6 -42 10
-63 8 -35 -3 -36 -2 -11 7 15 6 30 19 33 29 3 11 11 17 18 15 7 -2 25 -6 42
-10 29 -6 29 -6 11 13 -17 20 -17 21 3 31 11 6 26 11 33 11 7 0 22 8 33 17 16
12 17 14 3 10 -11 -4 -21 1 -28 13 -5 10 -20 22 -32 26 -21 6 -21 7 -3 20 10
8 16 16 13 19 -2 3 -18 -8 -34 -25 -16 -16 -32 -30 -35 -30 -4 0 -9 14 -12 30
-8 35 -22 39 -31 8z m-921 -28 c3 -5 1 -10 -4 -10 -6 0 -11 5 -11 10 0 6 2 10
4 10 3 0 8 -4 11 -10z m-75 -30 c0 -11 -56 -39 -73 -36 -26 4 -28 11 -5 25 11
7 17 8 14 2 -9 -14 7 -21 24 -10 13 8 13 10 1 18 -10 7 -7 9 12 8 15 -1 27 -4
27 -7z m37 -6 c-3 -3 -12 -4 -19 -1 -8 3 -5 6 6 6 11 1 17 -2 13 -5z m1063
-10 c0 -2 -11 -4 -25 -4 -14 0 -25 4 -25 9 0 4 11 6 25 3 14 -2 25 -6 25 -8z
m-78 -22 c-7 -2 -12 -12 -12 -22 0 -10 -7 -21 -16 -24 -22 -9 -24 -8 -18 9 4
10 0 15 -12 15 -16 0 -17 2 -4 10 8 5 11 10 5 11 -5 0 1 4 15 8 25 8 65 1 42
-7z m-1147 -22 c-16 -4 -39 -8 -50 -8 -16 0 -15 2 5 8 14 4 36 8 50 8 22 0 22
-1 -5 -8z m35 -56 c0 -8 -19 -13 -24 -6 -3 5 1 9 9 9 8 0 15 -2 15 -3z m678
-59 c-10 -10 -49 -14 -43 -4 4 5 16 9 27 9 12 0 19 -2 16 -5z m297 -5 c3 -5 1
-10 -4 -10 -6 0 -11 5 -11 10 0 6 2 10 4 10 3 0 8 -4 11 -10z m-268 -14 c-3
-8 -2 -16 3 -18 4 -2 2 -9 -6 -16 -9 -8 -14 -9 -14 -2 0 6 -4 8 -10 5 -13 -8
-13 1 2 25 15 23 33 27 25 6z m746 -5 c-9 -11 -22 -17 -30 -14 -10 4 -8 9 9
18 34 19 40 18 21 -4z m-3225 -13 c-2 -6 -10 -14 -18 -16 -7 -3 -10 0 -6 6 3
6 0 13 -6 15 -7 3 -2 6 10 6 14 1 22 -4 20 -11z m1922 -4 c0 -8 -5 -12 -10 -9
-6 4 -8 11 -5 16 9 14 15 11 15 -7z m740 12 c0 -2 -13 -6 -29 -8 -17 -2 -28
-1 -25 4 5 8 54 12 54 4z m-2600 -16 c0 -5 -7 -10 -16 -10 -8 0 -12 5 -9 10 3
6 10 10 16 10 5 0 9 -4 9 -10z m1801 -12 c1 -7 1 -16 0 -20 0 -5 4 -8 9 -8 6
0 10 -5 10 -11 0 -8 -4 -8 -15 1 -17 14 -36 5 -28 -15 5 -14 -1 -15 -47 -5 -3
0 3 5 13 11 9 5 17 18 17 28 0 10 3 21 7 24 11 12 33 8 34 -5z m-1859 -43 c-2
-19 -8 -35 -13 -35 -5 0 -6 7 -3 15 5 11 2 13 -12 8 -16 -6 -16 -4 2 20 25 35
31 34 26 -8z m1765 -12 c0 -16 -1 -20 -4 -10 -6 23 -15 22 -44 -10 -19 -21
-20 -25 -6 -20 13 5 17 3 14 -5 -2 -7 -11 -12 -19 -10 -8 1 -15 -4 -15 -13 0
-8 5 -11 10 -8 5 3 2 -8 -9 -26 -10 -17 -27 -31 -37 -31 -10 0 -16 4 -12 9 3
5 0 13 -7 17 -9 6 -5 10 11 14 34 8 39 30 8 30 -26 0 -45 -29 -32 -49 3 -5 1
-12 -5 -16 -6 -4 -10 4 -10 19 0 20 -5 25 -32 28 -47 5 -48 38 0 52 16 5 22 3
22 -7 0 -9 -6 -18 -12 -21 -7 -3 -4 -4 7 -1 11 2 37 7 58 11 22 4 37 12 37 20
0 12 54 54 70 54 3 0 6 -12 7 -27z m1509 -1 c-4 -3 -14 2 -24 12 -16 18 -16
18 6 6 13 -6 21 -14 18 -18z m-1025 4 c5 3 9 1 9 -4 0 -12 -26 -23 -33 -15 -3
3 -3 12 1 21 4 10 7 12 10 4 2 -7 8 -10 13 -6z m976 8 c-3 -3 -12 -4 -19 -1
-8 3 -5 6 6 6 11 1 17 -2 13 -5z m-1113 -12 c2 -4 -4 -8 -14 -8 -10 0 -16 4
-14 8 3 4 9 8 14 8 5 0 11 -4 14 -8z m1061 -2 c3 -5 1 -10 -4 -10 -6 0 -11 5
-11 10 0 6 2 10 4 10 3 0 8 -4 11 -10z m-1300 -21 c-4 -5 1 -9 9 -9 9 0 13 -6
10 -15 -5 -11 -11 -12 -25 -4 -15 7 -19 6 -19 -6 0 -11 -11 -15 -38 -15 -32 0
-41 -5 -51 -26 -6 -15 -14 -24 -17 -21 -4 3 4 20 16 36 18 26 26 30 48 25 26
-7 27 -7 9 13 -17 20 -17 20 8 16 17 -4 27 0 31 11 3 9 10 13 15 10 5 -3 7
-10 4 -15z m615 8 c0 -7 -9 -18 -20 -25 -18 -11 -20 -10 -18 13 2 17 8 25 20
25 10 0 18 -6 18 -13z m-814 -10 c4 -4 0 -7 -9 -7 -8 0 -23 -3 -31 -6 -12 -5
-15 -2 -10 10 6 15 36 17 50 3z m921 -1 c0 -8 -7 -11 -18 -9 -9 3 -19 1 -22
-4 -3 -4 8 -8 24 -9 32 -1 51 -14 31 -21 -6 -3 -10 -9 -6 -14 3 -5 -6 -9 -20
-9 -27 0 -36 15 -13 23 6 2 0 3 -15 1 -20 -2 -26 0 -23 11 3 8 7 22 10 30 6
19 52 20 52 1z m-2661 -21 c-3 -8 0 -15 7 -15 7 0 3 -7 -7 -15 -11 -8 -15 -15
-9 -15 6 0 9 -9 6 -19 -5 -21 -46 -37 -51 -21 -2 6 -7 8 -12 5 -4 -3 -19 -1
-32 4 -22 9 -22 10 7 12 17 1 40 1 52 2 19 0 21 2 11 21 -14 28 -23 35 -15 13
5 -12 3 -17 -5 -15 -22 8 -18 23 10 40 35 21 46 22 38 3z m141 -1 c-3 -3 -12
-4 -19 -1 -8 3 -5 6 6 6 11 1 17 -2 13 -5z m2427 0 c20 -8 21 -44 1 -44 -8 0
-15 4 -15 9 0 5 -3 16 -6 25 -7 18 -4 19 20 10z m186 -9 c0 -1 -6 -7 -13 -13
-10 -8 -13 -6 -13 7 0 11 6 17 13 14 7 -3 13 -6 13 -8z m-2519 -28 c-13 -13
-26 -3 -16 12 3 6 11 8 17 5 6 -4 6 -10 -1 -17z m46 17 c-3 -3 -12 -4 -19 -1
-8 3 -5 6 6 6 11 1 17 -2 13 -5z m2259 -15 c8 -14 -10 -11 -32 6 -18 13 -18
14 4 8 12 -3 25 -9 28 -14z m-536 3 c0 -5 -7 -9 -15 -9 -8 0 -12 4 -9 9 3 4 9
8 15 8 5 0 9 -4 9 -8z m1268 -6 c-7 -8 -17 -12 -22 -9 -4 3 -2 9 5 14 22 13
31 11 17 -5z m-3109 -20 l24 -13 -21 -12 c-19 -10 -22 -9 -22 8 0 11 -6 22
-12 24 -7 3 -8 6 -3 6 6 0 21 -6 34 -13z m61 -6 c-20 -13 -33 -13 -25 0 3 6
14 10 23 10 15 0 15 -2 2 -10z m2974 -6 c20 -8 21 -30 2 -37 -16 -6 -36 11
-36 30 0 14 10 16 34 7z m-374 -13 c0 -14 -10 -18 -60 -25 l-45 -6 40 20 c44
21 65 25 65 11z m-2610 -15 c-7 -7 -13 -7 -20 0 -6 6 -3 10 10 10 13 0 16 -4
10 -10z m133 -11 c-6 -31 -25 -46 -42 -36 -18 12 -3 34 18 27 14 -5 14 -4 -1
7 -19 15 -14 27 12 27 13 0 16 -6 13 -25z m1467 15 c0 -5 -5 -10 -11 -10 -5 0
-7 5 -4 10 3 6 8 10 11 10 2 0 4 -4 4 -10z m-1756 -16 c5 -14 4 -15 -9 -4 -17
14 -19 20 -6 20 5 0 12 -7 15 -16z m1266 12 c0 -2 -7 -6 -15 -10 -8 -3 -15 -1
-15 4 0 6 7 10 15 10 8 0 15 -2 15 -4z m1755 -6 c-3 -5 -14 -10 -23 -9 -14 0
-13 2 3 9 27 11 27 11 20 0z m-2925 -9 c0 -5 -9 -11 -20 -14 -22 -6 -28 8 -7
16 19 8 27 8 27 -2z m620 -34 c10 -4 9 -6 -6 -6 -11 -1 -24 2 -28 7 -4 4 -12
7 -17 7 -5 0 -9 3 -9 8 0 4 0 12 0 19 0 6 10 2 23 -9 12 -11 29 -23 37 -26z
m220 33 c0 -5 -5 -10 -11 -10 -5 0 -7 5 -4 10 3 6 8 10 11 10 2 0 4 -4 4 -10z
m-750 -4 c0 -2 -7 -9 -15 -16 -13 -11 -14 -10 -9 4 5 14 24 23 24 12z m1010
-12 c0 -8 -5 -12 -10 -9 -6 4 -8 11 -5 16 9 14 15 11 15 -7z m100 -13 c-9 -18
-14 -19 -31 -10 -17 9 -21 7 -26 -10 -8 -31 -33 -27 -31 5 3 30 22 42 41 25
10 -8 19 -7 33 3 24 18 29 14 14 -13z m-276 3 c10 -25 -1 -29 -14 -5 -6 12 -7
21 -1 21 5 0 12 -7 15 -16z m-924 -10 c0 -14 3 -14 15 -4 11 9 18 10 29 1 16
-14 10 -45 -12 -63 -9 -7 -13 -8 -9 -2 9 16 -56 33 -105 27 -32 -3 -39 -2 -28
6 8 6 25 11 38 11 13 0 21 4 17 9 -6 10 22 30 43 31 6 0 12 -7 12 -16z m2079
-14 c6 -18 6 -28 1 -25 -6 4 -10 13 -10 21 0 8 -5 14 -11 14 -5 0 -7 5 -4 10
9 15 12 13 24 -20z m67 -3 c1 -17 0 -24 -3 -15 -3 10 -10 15 -20 11 -13 -5
-14 -3 -4 15 16 31 26 27 27 -11z m-1598 11 c-3 -7 -12 -14 -21 -16 -12 -2
-15 1 -11 12 7 19 38 22 32 4z m-758 -8 c0 -5 -5 -10 -11 -10 -5 0 -7 5 -4 10
3 6 8 10 11 10 2 0 4 -4 4 -10z m100 0 c0 -5 -5 -10 -11 -10 -5 0 -7 5 -4 10
3 6 8 10 11 10 2 0 4 -4 4 -10z m1197 4 c-3 -3 -12 -4 -19 -1 -8 3 -5 6 6 6
11 1 17 -2 13 -5z m1116 -13 c-19 -12 -37 -56 -34 -83 1 -16 -2 -28 -8 -28 -6
0 -7 7 -4 17 5 12 3 14 -7 8 -9 -5 -11 -4 -6 4 4 7 -2 15 -16 20 -20 9 -21 10
-3 10 19 1 65 45 65 63 0 5 5 6 11 2 7 -4 7 -9 2 -13z m-2476 -11 c1 -14 -7
-24 -23 -30 -39 -15 -40 -12 -9 20 16 17 29 30 30 30 0 0 1 -9 2 -20z m824 5
c19 3 27 3 19 -1 -8 -3 -25 -11 -38 -17 -19 -9 -25 -8 -32 3 -14 22 -12 34 4
21 7 -6 28 -9 47 -6z m206 9 c-3 -3 -12 -4 -19 -1 -8 3 -5 6 6 6 11 1 17 -2
13 -5z m-641 -15 c-15 -9 -16 -13 -5 -20 10 -6 5 -9 -15 -9 l-28 0 23 20 c13
10 29 19 34 19 6 0 2 -4 -9 -10z m2222 -14 c-2 -20 -8 -25 -28 -24 -17 1 -19
3 -7 6 9 2 14 9 11 15 -4 6 0 14 7 19 19 12 19 12 17 -16z m57 -12 c0 -9 8
-17 18 -19 9 -1 15 2 11 7 -3 5 -10 6 -16 3 -7 -4 -8 -2 -4 4 4 7 14 12 21 12
19 0 31 -48 16 -63 -13 -13 -15 -47 -2 -47 5 0 12 10 15 23 7 21 7 21 16 2 13
-31 12 -32 -19 -37 -18 -3 -28 0 -24 6 4 5 0 7 -9 3 -9 -3 -21 0 -28 6 -10 9
-11 9 -6 0 4 -7 -3 -22 -14 -33 -17 -17 -19 -24 -9 -43 11 -20 11 -21 -4 -9
-16 14 -19 52 -4 52 18 0 -4 18 -28 22 -17 4 -25 1 -25 -8 0 -9 -11 -14 -27
-14 -24 1 -25 2 -10 11 9 5 17 17 17 25 0 8 13 17 30 20 16 4 27 10 24 15 -3
5 2 9 11 9 10 0 13 -5 9 -12 -4 -7 -3 -8 5 -4 6 4 9 12 6 17 -6 8 8 13 27 10
4 0 5 6 2 14 -4 8 -10 12 -15 9 -5 -3 -6 2 -3 10 4 11 0 16 -11 16 -15 0 -15
3 -5 15 15 18 35 5 35 -22z m-2615 7 c0 -5 -2 -10 -4 -10 -3 0 -8 5 -11 10 -3
6 -1 10 4 10 6 0 11 -4 11 -10z m110 -16 c0 -9 -82 -44 -90 -39 -5 3 -11 1
-15 -5 -10 -16 -25 -12 -19 5 4 10 0 15 -12 15 -15 0 -16 2 -5 9 8 5 27 5 45
0 42 -12 43 -12 49 10 3 14 11 18 26 14 12 -3 21 -7 21 -9z m40 1 c-7 -8 -18
-15 -24 -14 -6 0 -5 3 3 6 11 5 11 7 0 14 -10 6 -7 9 10 9 20 0 21 -2 11 -15z
m708 -14 c-7 -12 -16 -21 -21 -21 -4 0 0 11 10 24 22 29 30 27 11 -3z m243 9
c-13 -11 -28 -20 -33 -20 -6 0 0 9 13 20 13 10 29 19 34 19 6 0 -1 -9 -14 -19z
m1144 8 c14 -6 25 -16 25 -21 0 -5 9 -7 20 -4 11 3 20 1 20 -4 0 -14 -28 -10
-56 8 -25 16 -27 16 -36 0 -5 -10 -20 -17 -36 -16 l-27 1 28 10 c15 5 27 16
27 24 0 17 2 17 35 2z m225 -14 c0 -10 6 -13 18 -10 13 5 17 1 17 -17 -2 -28
-22 -67 -36 -67 -6 0 -6 8 1 21 7 11 9 28 5 37 -6 16 -7 16 -19 0 -7 -9 -16
-14 -22 -10 -16 12 -34 51 -25 56 5 3 12 -4 16 -17 6 -22 7 -21 21 21 5 17 24
6 24 -14z m-1040 9 c0 -5 -8 -17 -16 -28 -16 -20 -16 -19 -9 4 6 20 4 23 -9
18 -10 -4 -15 -3 -11 3 7 12 45 14 45 3z m290 -3 c0 -5 -2 -10 -4 -10 -3 0 -8
5 -11 10 -3 6 -1 10 4 10 6 0 11 -4 11 -10z m-145 -10 c-3 -5 -14 -10 -23 -10
-15 0 -15 2 -2 10 20 13 33 13 25 0z m575 1 c0 -5 -7 -11 -15 -15 -15 -5 -20
5 -8 17 9 10 23 9 23 -2z m-2230 -16 c0 -8 -7 -15 -15 -15 -16 0 -20 12 -8 23
11 12 23 8 23 -8z m496 6 c-7 -11 -66 -20 -66 -10 0 10 20 17 48 18 13 1 21
-3 18 -8z m944 5 c0 -2 -8 -10 -17 -17 -16 -13 -17 -12 -4 4 13 16 21 21 21
13z m690 -5 c0 -5 -7 -11 -15 -15 -15 -5 -20 5 -8 17 9 10 23 9 23 -2z m-1910
-11 c0 -5 -5 -10 -11 -10 -5 0 -7 5 -4 10 3 6 8 10 11 10 2 0 4 -4 4 -10z
m1100 -6 c0 -2 -7 -4 -15 -4 -8 0 -15 4 -15 10 0 5 7 7 15 4 8 -4 15 -8 15
-10z m234 4 c-4 -6 1 -17 11 -25 21 -14 8 -18 -14 -4 -13 8 -9 41 4 41 4 0 3
-5 -1 -12z m524 -6 c-10 -2 -18 -8 -18 -13 0 -5 -6 -9 -14 -9 -9 0 -12 7 -9
18 3 15 11 18 31 13 19 -3 22 -6 10 -9z m-1525 1 c-7 -2 -19 -2 -25 0 -7 3 -2
5 12 5 14 0 19 -2 13 -5z m661 -8 c-4 -8 -10 -12 -15 -9 -11 6 -2 24 11 24 5
0 7 -7 4 -15z m56 0 c-7 -8 -18 -15 -24 -15 -6 0 -2 7 8 15 25 19 32 19 16 0z
m400 11 c0 -3 -4 -8 -10 -11 -5 -3 -10 -1 -10 4 0 6 5 11 10 11 6 0 10 -2 10
-4z m350 -17 c0 -5 -4 -9 -10 -9 -5 0 -10 7 -10 16 0 8 5 12 10 9 6 -3 10 -10
10 -16z m830 11 c13 -8 12 -10 -4 -10 -11 0 -16 -3 -13 -6 11 -12 -35 -83 -49
-77 -8 3 -14 9 -14 15 0 5 4 7 9 3 5 -3 19 7 31 22 l22 28 -21 3 c-35 6 -25
22 19 31 3 0 12 -4 20 -9z m-2565 -19 c-3 -6 -14 -11 -23 -11 -15 1 -15 2 2
15 21 16 32 13 21 -4z m514 16 c-31 -22 -59 -35 -59 -27 0 6 10 15 23 20 21 8
45 13 36 7z m951 -17 c-13 -24 -25 -27 -16 -4 7 17 -2 13 -51 -23 -18 -13 -33
-19 -33 -13 0 7 -6 8 -17 2 -10 -5 -24 -7 -31 -5 -7 3 -21 -6 -32 -19 -11 -12
-19 -18 -20 -12 0 5 5 15 12 22 7 7 9 12 5 12 -5 0 -19 -12 -32 -26 -14 -15
-25 -22 -25 -15 0 6 9 19 20 28 15 13 16 19 7 25 -7 5 4 8 28 7 22 -1 48 2 59
6 12 5 21 3 27 -6 7 -12 10 -12 18 -1 11 18 51 40 74 41 15 1 16 -2 7 -19z
m450 10 c0 -5 -5 -10 -11 -10 -5 0 -7 5 -4 10 3 6 8 10 11 10 2 0 4 -4 4 -10z
m50 -2 c0 -4 -9 -8 -21 -8 -11 0 -18 4 -15 8 3 5 12 9 21 9 8 0 15 -4 15 -9z
m70 2 c0 -5 -2 -10 -4 -10 -3 0 -8 5 -11 10 -3 6 -1 10 4 10 6 0 11 -4 11 -10z
m-1297 -19 c4 -17 2 -18 -14 -8 -13 8 -15 13 -6 19 7 4 13 8 13 8 1 0 4 -9 7
-19z m287 9 c0 -5 -10 -10 -22 -10 -19 0 -20 2 -8 10 19 13 30 13 30 0z m1100
6 c0 -2 -15 -9 -32 -15 -30 -10 -31 -9 -14 4 18 14 46 20 46 11z m-1947 -13
c-7 -2 -19 -2 -25 0 -7 3 -2 5 12 5 14 0 19 -2 13 -5z m377 -13 c14 -10 23
-21 20 -23 -3 -3 -18 6 -35 19 -35 28 -22 32 15 4z m586 -9 c11 -18 23 -27 33
-24 11 3 11 1 -2 -7 -15 -10 -21 -8 -32 7 -10 12 -14 14 -15 4 0 -7 -6 -11
-15 -7 -8 3 -15 0 -15 -6 0 -6 -3 -8 -7 -5 -3 4 -17 -3 -30 -15 -12 -12 -26
-19 -29 -15 -3 3 4 14 15 24 20 16 20 18 4 25 -14 5 -13 7 7 7 14 1 31 10 38
21 17 27 28 25 48 -9z m-796 9 c0 -5 -5 -10 -11 -10 -5 0 -7 5 -4 10 3 6 8 10
11 10 2 0 4 -4 4 -10z m90 0 c0 -5 -2 -10 -4 -10 -3 0 -8 5 -11 10 -3 6 -1 10
4 10 6 0 11 -4 11 -10z m1280 0 c0 -5 -4 -10 -10 -10 -5 0 -10 5 -10 10 0 6 5
10 10 10 6 0 10 -4 10 -10z m170 0 c0 -5 -2 -10 -4 -10 -3 0 -8 5 -11 10 -3 6
-1 10 4 10 6 0 11 -4 11 -10z m-1170 -4 c0 -3 -4 -8 -10 -11 -5 -3 -10 -1 -10
4 0 6 5 11 10 11 6 0 10 -2 10 -4z m-463 -22 c-3 -3 -12 -4 -19 -1 -8 3 -5 6
6 6 11 1 17 -2 13 -5z m1990 0 c-3 -3 -12 -4 -19 -1 -8 3 -5 6 6 6 11 1 17 -2
13 -5z m-1917 -8 c0 -2 -7 -6 -15 -10 -8 -3 -15 -1 -15 4 0 6 7 10 15 10 8 0
15 -2 15 -4z m45 -7 c4 -6 13 -8 21 -5 8 3 14 1 14 -3 0 -11 -25 -21 -55 -21
-13 0 -27 -4 -30 -10 -3 -5 -16 -10 -28 -10 -16 0 -18 3 -8 9 11 7 11 10 0 15
-8 3 -5 4 7 1 13 -3 27 2 39 15 20 23 31 25 40 9z m615 2 c0 -5 -9 -7 -20 -4
-11 3 -20 7 -20 9 0 2 9 4 20 4 11 0 20 -4 20 -9z m510 -2 c0 -13 -15 -18 -38
-12 -32 8 -27 22 8 21 17 -1 30 -5 30 -9z m85 1 c-3 -5 -12 -10 -18 -10 -7 0
-6 4 3 10 19 12 23 12 15 0z m495 -3 c0 -8 -6 -14 -13 -14 -7 0 -18 6 -25 14
-10 11 -8 13 13 13 14 0 25 -6 25 -13z m873 -6 c3 -13 1 -18 -8 -14 -19 7 -27
33 -11 33 8 0 16 -9 19 -19z m-2486 -4 c-31 -13 -31 -31 2 -33 12 -1 25 -4 28
-8 4 -3 -13 -4 -37 -1 -24 3 -45 7 -47 9 -8 8 37 42 58 42 23 1 23 1 -4 -9z
m2553 -13 c0 -8 -4 -14 -9 -14 -11 0 -22 26 -14 34 9 9 23 -3 23 -20z m-409 9
c0 -5 2 -16 4 -26 2 -9 -1 -15 -6 -11 -5 3 -7 10 -4 15 4 5 1 9 -4 9 -6 0 -11
5 -11 10 0 11 20 14 21 3z m-1001 -12 c-25 -14 -76 -24 -65 -13 9 9 36 17 70
20 6 1 3 -2 -5 -7z m795 -1 c3 -5 1 -10 -4 -10 -6 0 -11 5 -11 10 0 6 2 10 4
10 3 0 8 -4 11 -10z m-2005 -9 c0 -5 -7 -12 -16 -15 -14 -5 -15 -4 -4 9 14 17
20 19 20 6z m1005 -1 c-3 -5 -12 -10 -18 -10 -7 0 -6 4 3 10 19 12 23 12 15 0z
m235 -10 c0 -5 -10 -10 -22 -10 -19 0 -20 2 -8 10 19 13 30 13 30 0z m45 0
c-3 -5 -11 -10 -16 -10 -6 0 -7 5 -4 10 3 6 11 10 16 10 6 0 7 -4 4 -10z m527
0 c-12 -5 -25 -16 -28 -24 -5 -13 -34 -31 -34 -21 0 11 57 55 70 54 9 0 5 -4
-8 -9z m78 0 c0 -5 -2 -10 -4 -10 -3 0 -8 5 -11 10 -3 6 -1 10 4 10 6 0 11 -4
11 -10z m445 -9 c-3 -6 -11 -11 -17 -11 -6 0 -6 6 2 15 14 17 26 13 15 -4z
m254 10 c9 -6 12 -19 8 -40 -5 -25 -4 -29 10 -24 10 4 14 2 9 -5 -3 -6 -15
-10 -26 -9 -10 1 -17 3 -15 6 3 2 -9 12 -25 22 -17 11 -30 24 -30 29 0 6 4 9
9 6 5 -3 11 1 15 9 6 17 24 19 45 6z m-1822 -7 c-3 -3 -12 -4 -19 -1 -8 3 -5
6 6 6 11 1 17 -2 13 -5z m963 -4 c0 -5 -5 -10 -11 -10 -5 0 -7 5 -4 10 3 6 8
10 11 10 2 0 4 -4 4 -10z m120 -15 c0 -9 -6 -12 -15 -9 -8 4 -12 10 -9 15 8
14 24 10 24 -6z m344 0 c-4 -8 -10 -15 -15 -15 -4 0 -6 7 -3 15 4 8 10 15 15
15 4 0 6 -7 3 -15z m-2010 -10 c-10 -8 -23 -15 -28 -15 -6 0 -1 7 10 15 10 8
23 15 28 15 6 0 1 -7 -10 -15z m410 0 c-10 -8 -23 -15 -28 -15 -6 0 -1 7 10
15 10 8 23 15 28 15 6 0 1 -7 -10 -15z m103 -1 c-3 -3 -12 -4 -19 -1 -8 3 -5
6 6 6 11 1 17 -2 13 -5z m50 0 c-3 -3 -12 -4 -19 -1 -8 3 -5 6 6 6 11 1 17 -2
13 -5z m43 -4 c0 -5 -2 -10 -4 -10 -3 0 -8 5 -11 10 -3 6 -1 10 4 10 6 0 11
-4 11 -10z m600 0 c0 -5 -7 -7 -15 -4 -8 4 -15 8 -15 10 0 2 7 4 15 4 8 0 15
-4 15 -10z m535 -1 c4 -6 14 -8 24 -4 12 5 13 3 4 -6 -9 -9 -17 -8 -34 5 -13
9 -18 16 -12 16 7 0 15 -5 18 -11z m-179 -27 c-6 -6 -56 10 -56 18 0 5 13 3
30 -3 16 -6 28 -13 26 -15z m-726 4 c0 -3 -4 -8 -10 -11 -5 -3 -10 -1 -10 4 0
6 5 11 10 11 6 0 10 -2 10 -4z m890 -6 c0 -5 -4 -10 -10 -10 -5 0 -10 5 -10
10 0 6 5 10 10 10 6 0 10 -4 10 -10z m-1170 -20 c12 -7 10 -9 -8 -7 -12 0 -22
5 -22 9 0 11 12 10 30 -2z m1760 -12 c-13 -5 -25 -6 -29 -3 -9 10 21 24 37 17
12 -4 10 -7 -8 -14z m-917 -13 c3 -16 0 -24 -7 -22 -14 4 -21 47 -8 47 5 0 12
-11 15 -25z m977 9 c0 -8 -4 -12 -10 -9 -5 3 -10 10 -10 16 0 5 5 9 10 9 6 0
10 -7 10 -16z m-825 -4 c3 -5 1 -10 -4 -10 -6 0 -11 5 -11 10 0 6 2 10 4 10 3
0 8 -4 11 -10z m786 -14 c-9 -11 -8 -15 5 -20 10 -4 21 -1 26 6 6 11 8 11 8 0
0 -22 -30 -25 -51 -6 -19 17 -19 19 -2 25 26 11 27 10 14 -5z m-124 -2 c-3 -3
-12 -4 -19 -1 -8 3 -5 6 6 6 11 1 17 -2 13 -5z"/>
<path d="M320 2009 c0 -5 11 -9 25 -9 14 0 25 2 25 4 0 2 -11 6 -25 8 -14 3
-25 1 -25 -3z"/>
<path d="M1428 1873 c7 -3 16 -2 19 1 4 3 -2 6 -13 5 -11 0 -14 -3 -6 -6z"/>
<path d="M3286 1765 c-3 -8 -1 -15 4 -15 13 0 22 18 11 24 -5 3 -11 -1 -15 -9z"/>
<path d="M3145 2590 c-3 -5 -1 -10 4 -10 6 0 11 5 11 10 0 6 -2 10 -4 10 -3 0
-8 -4 -11 -10z"/>
<path d="M3270 2578 c6 -13 13 -31 16 -40 7 -19 29 -24 38 -9 9 14 -4 41 -19
41 -7 0 -15 7 -19 15 -3 8 -10 15 -15 15 -7 0 -7 -8 -1 -22z"/>
<path d="M3559 2583 c-13 -16 -12 -17 4 -4 16 13 21 21 13 21 -2 0 -10 -8 -17
-17z"/>
<path d="M3600 2586 c0 -8 -7 -16 -15 -20 -8 -3 -12 -12 -9 -21 8 -19 -5 -19
-27 1 -13 12 -19 12 -25 3 -4 -7 -3 -10 3 -6 6 4 13 -6 15 -24 6 -38 -5 -45
-30 -18 -28 29 -58 13 -57 -32 0 -37 24 -52 32 -20 6 25 35 29 31 5 -2 -10 3
-19 11 -22 10 -3 12 0 8 11 -4 10 2 22 16 32 29 21 47 19 47 -5 0 -30 17 -24
29 11 11 33 2 63 -21 72 -10 4 -10 6 0 6 14 1 17 41 2 41 -5 0 -10 -6 -10 -14z"/>
<path d="M7226 2575 c-10 -14 -28 -25 -38 -25 -11 0 -18 -5 -16 -12 9 -25 33
-18 57 17 27 41 25 57 -3 20z"/>
<path d="M8125 2573 c4 -21 3 -33 -4 -33 -6 0 -11 6 -11 14 0 7 -11 16 -25 18
-31 6 -43 -8 -14 -15 11 -3 23 -15 26 -26 6 -25 32 -35 47 -17 6 7 20 19 31
25 19 11 19 12 -2 6 -16 -4 -23 -2 -23 7 0 8 -7 23 -15 34 -15 18 -16 17 -10
-13z"/>
<path d="M8213 2568 l-12 -33 19 24 c21 24 26 41 12 41 -4 0 -13 -15 -19 -32z"/>
<path d="M457 2575 c-4 -8 -2 -17 3 -20 6 -4 10 3 10 14 0 25 -6 27 -13 6z"/>
<path d="M1701 2573 c-6 -7 -11 -21 -11 -31 0 -16 -6 -19 -31 -16 -17 2 -35 6
-40 9 -5 4 -9 -1 -9 -9 0 -9 10 -18 23 -20 40 -9 92 -16 150 -22 54 -6 59 -4
86 25 34 36 33 37 -13 12 -25 -14 -36 -16 -39 -8 -3 9 -12 9 -39 0 -42 -16
-58 -16 -58 -3 0 6 10 10 21 10 17 0 19 3 10 14 -10 11 -8 16 8 21 12 3 25 3
31 0 12 -7 13 5 2 23 -10 15 -75 12 -91 -5z"/>
<path d="M2138 2583 c6 -2 18 -2 25 0 6 3 1 5 -13 5 -14 0 -19 -2 -12 -5z"/>
<path d="M2190 2583 c0 -5 7 -16 15 -27 13 -17 15 -17 37 -1 23 17 23 17 1 12
-13 -3 -24 1 -27 9 -6 15 -26 20 -26 7z"/>
<path d="M7629 2573 c-13 -16 -12 -17 4 -4 16 13 21 21 13 21 -2 0 -10 -8 -17
-17z"/>
<path d="M8805 2580 c3 -5 10 -10 16 -10 5 0 9 5 9 10 0 6 -7 10 -16 10 -8 0
-12 -4 -9 -10z"/>
<path d="M360 2571 l-25 -7 23 -8 c24 -8 29 -22 10 -29 -24 -9 21 -19 50 -11
20 5 23 8 9 11 -9 3 -15 8 -12 13 3 5 -4 12 -16 15 -17 6 -19 9 -8 16 16 10 4
10 -31 0z"/>
<path d="M2980 2570 c-8 -5 -12 -12 -9 -15 4 -3 12 1 19 10 14 17 11 19 -10 5z"/>
<path d="M3450 2569 c0 -5 5 -7 10 -4 6 3 10 8 10 11 0 2 -4 4 -10 4 -5 0 -10
-5 -10 -11z"/>
<path d="M3496 2563 c-6 -14 -5 -15 5 -6 7 7 10 15 7 18 -3 3 -9 -2 -12 -12z"/>
<path d="M7556 2569 c4 -8 -1 -9 -15 -4 -22 7 -22 6 -5 -14 10 -11 21 -18 26
-15 4 3 4 -6 -2 -20 -7 -19 -6 -26 2 -26 6 0 19 -7 29 -16 16 -15 17 -14 12 5
-3 11 -12 22 -22 24 -14 4 -14 5 2 6 21 1 23 29 2 37 -8 4 -15 12 -15 20 0 8
-5 14 -11 14 -5 0 -7 -5 -3 -11z"/>
<path d="M8770 2559 c0 -5 5 -7 10 -4 6 3 10 8 10 11 0 2 -4 4 -10 4 -5 0 -10
-5 -10 -11z"/>
<path d="M2690 2548 c0 -12 38 -10 45 2 4 6 -5 9 -19 8 -15 -1 -26 -6 -26 -10z"/>
<path d="M3637 2541 c3 -12 10 -21 15 -21 13 0 6 32 -9 37 -7 3 -9 -3 -6 -16z"/>
<path d="M7090 2550 c-13 -8 -12 -10 3 -10 9 0 17 5 17 10 0 12 -1 12 -20 0z"/>
<path d="M7264 2549 c-6 -8 -14 -23 -18 -34 -3 -11 -16 -31 -27 -45 -20 -25
-20 -25 -14 -2 7 22 6 23 -13 6 -19 -16 -20 -50 -2 -39 9 5 -3 -46 -14 -64 -4
-6 2 -15 12 -20 26 -14 55 18 55 59 0 31 11 40 20 18 3 -8 6 -5 6 5 1 13 6 17
20 12 26 -8 55 31 38 50 -9 9 -14 10 -19 1 -5 -7 -8 -6 -8 4 0 12 -2 12 -9 1
-6 -10 -10 -10 -16 -1 -4 6 1 18 11 26 11 9 14 13 7 10 -6 -4 -13 1 -15 10 -2
15 -5 15 -14 3z m-34 -139 c0 -5 -2 -10 -4 -10 -3 0 -8 5 -11 10 -3 6 -1 10 4
10 6 0 11 -4 11 -10z"/>
<path d="M8420 2535 c0 -8 2 -15 4 -15 2 0 6 7 10 15 3 8 1 15 -4 15 -6 0 -10
-7 -10 -15z"/>
<path d="M2408 2505 c16 -32 52 -49 52 -24 0 6 -6 9 -12 6 -7 -2 -18 9 -25 25
-7 15 -17 28 -22 28 -6 0 -3 -16 7 -35z"/>
<path d="M2565 2530 c-3 -5 -1 -10 4 -10 6 0 11 5 11 10 0 6 -2 10 -4 10 -3 0
-8 -4 -11 -10z"/>
<path d="M3355 2517 c17 -25 20 -41 5 -32 -7 4 -10 -6 -8 -29 1 -20 6 -36 10
-36 4 0 8 5 8 10 0 6 6 10 14 10 19 0 27 37 10 44 -8 3 -14 14 -14 25 0 10 -9
21 -20 24 -18 5 -19 4 -5 -16z"/>
<path d="M3411 2513 l-13 -28 21 22 c23 24 26 33 13 33 -5 0 -14 -12 -21 -27z"/>
<path d="M7346 2515 c4 -8 10 -12 15 -9 11 6 2 24 -11 24 -5 0 -7 -7 -4 -15z"/>
<path d="M7785 2520 c-3 -6 1 -7 9 -4 18 7 21 14 7 14 -6 0 -13 -4 -16 -10z"/>
<path d="M175 2510 c-3 -5 -1 -10 4 -10 6 0 11 5 11 10 0 6 -2 10 -4 10 -3 0
-8 -4 -11 -10z"/>
<path d="M7970 2516 c0 -2 7 -7 16 -10 8 -3 12 -2 9 4 -6 10 -25 14 -25 6z"/>
<path d="M668 2503 c18 -2 45 -2 60 0 15 2 0 4 -33 4 -33 0 -45 -2 -27 -4z"/>
<path d="M803 2503 c9 -2 25 -2 35 0 9 3 1 5 -18 5 -19 0 -27 -2 -17 -5z"/>
<path d="M2782 2491 c16 -25 31 -27 26 -4 -2 10 -11 19 -21 21 -16 3 -17 1 -5
-17z"/>
<path d="M2970 2500 c0 -5 7 -10 16 -10 8 0 12 5 9 10 -3 6 -10 10 -16 10 -5
0 -9 -4 -9 -10z"/>
<path d="M7686 2495 c4 -9 0 -15 -10 -15 -9 0 -16 -7 -16 -15 0 -9 -6 -12 -15
-9 -8 4 -15 1 -15 -6 0 -6 -4 -8 -10 -5 -15 9 -12 1 15 -46 14 -24 25 -39 25
-32 0 16 31 6 47 -15 18 -21 30 -6 15 18 -7 11 -8 20 -3 20 5 0 11 9 14 20 3
13 14 20 29 20 21 1 21 2 5 11 -10 6 -25 8 -33 5 -8 -3 -14 -1 -14 4 0 6 6 10
13 11 6 0 2 4 -10 9 -13 5 -23 16 -23 25 0 8 -4 15 -10 15 -5 0 -7 -7 -4 -15z
m10 -61 c-3 -9 -6 -17 -6 -20 0 -2 -7 -1 -15 2 -11 5 -12 9 -2 20 16 18 30 17
23 -2z"/>
<path d="M268 2493 c7 -3 16 -2 19 1 4 3 -2 6 -13 5 -11 0 -14 -3 -6 -6z"/>
<path d="M2623 2487 c-3 -5 -11 -6 -18 -3 -8 3 -19 -2 -27 -11 -11 -14 -10
-15 12 -9 24 7 24 6 6 -8 -12 -10 -16 -21 -12 -33 7 -17 8 -17 22 1 8 11 14
26 14 33 0 7 5 13 11 13 7 0 8 -11 4 -30 -4 -16 -4 -30 -1 -30 10 0 36 57 29
64 -4 3 1 6 10 6 10 0 17 3 17 8 0 10 -61 9 -67 -1z"/>
<path d="M2852 2487 c-12 -14 -7 -27 11 -27 5 0 6 7 3 16 -6 15 -4 15 10 3 15
-12 17 -12 13 0 -7 21 -24 24 -37 8z"/>
<path d="M6741 2484 c0 -11 3 -14 6 -6 3 7 2 16 -1 19 -3 4 -6 -2 -5 -13z"/>
<path d="M8045 2485 c-19 -15 -19 -15 8 -12 15 2 28 7 28 12 1 16 -16 16 -36
0z"/>
<path d="M58 2483 c7 -3 16 -2 19 1 4 3 -2 6 -13 5 -11 0 -14 -3 -6 -6z"/>
<path d="M2315 2480 c-4 -6 2 -21 13 -35 14 -18 22 -21 31 -12 21 21 13 52
-14 55 -13 1 -27 -3 -30 -8z"/>
<path d="M6680 2479 c0 -5 5 -7 10 -4 6 3 10 8 10 11 0 2 -4 4 -10 4 -5 0 -10
-5 -10 -11z"/>
<path d="M8105 2480 c-7 -12 12 -12 40 0 18 8 17 9 -7 9 -15 1 -30 -3 -33 -9z"/>
<path d="M2980 2470 c0 -5 7 -10 16 -10 8 0 12 5 9 10 -3 6 -10 10 -16 10 -5
0 -9 -4 -9 -10z"/>
<path d="M3417 2458 c-4 -12 -4 -24 -1 -27 6 -7 24 20 24 37 0 21 -17 13 -23
-10z"/>
<path d="M8186 2472 c-4 -7 -17 -12 -28 -12 -22 0 -20 -9 4 -14 7 -2 21 -6 31
-11 20 -8 37 2 21 13 -6 4 -13 14 -16 22 -3 10 -6 11 -12 2z"/>
<path d="M8506 2458 c3 -4 -19 -6 -47 -5 -30 1 -53 -3 -56 -9 -4 -13 102 -11
137 3 24 10 24 10 -7 15 -18 2 -30 1 -27 -4z"/>
<path d="M1530 2449 c0 -5 5 -7 10 -4 6 3 10 8 10 11 0 2 -4 4 -10 4 -5 0 -10
-5 -10 -11z"/>
<path d="M2218 2453 c7 -3 16 -2 19 1 4 3 -2 6 -13 5 -11 0 -14 -3 -6 -6z"/>
<path d="M8060 2434 c0 -8 5 -12 10 -9 6 3 10 10 10 16 0 5 -4 9 -10 9 -5 0
-10 -7 -10 -16z"/>
<path d="M2203 2414 c-12 -13 -17 -24 -10 -24 18 0 33 13 40 33 9 23 -3 20
-30 -9z"/>
<path d="M2950 2429 l-25 -7 27 -1 c15 -1 38 -5 52 -11 34 -13 33 -4 -1 13
-17 9 -38 11 -53 6z"/>
<path d="M7920 2429 c0 -5 5 -7 10 -4 6 3 10 1 10 -5 0 -7 -8 -9 -20 -5 -14 4
-20 2 -20 -8 0 -8 -11 -17 -25 -19 -14 -3 -25 -1 -25 5 0 6 -6 2 -14 -8 -11
-16 -11 -23 6 -52 21 -35 31 -44 22 -18 -4 8 -1 15 5 15 6 0 8 6 5 14 -3 8 3
16 15 19 12 3 21 1 21 -4 0 -5 7 -9 15 -9 8 0 14 -4 13 -9 -2 -5 1 -10 7 -11
5 0 13 13 16 29 4 17 3 31 -2 31 -5 0 -6 7 -2 16 3 9 0 20 -8 25 -19 12 -29
11 -29 -2z m-60 -69 c0 -5 -7 -7 -15 -4 -8 4 -15 8 -15 10 0 2 7 4 15 4 8 0
15 -4 15 -10z"/>
<path d="M8121 2427 c-17 -17 -13 -25 12 -23 13 0 24 6 24 13 0 17 -22 24 -36
10z"/>
<path d="M8558 2433 c7 -3 16 -2 19 1 4 3 -2 6 -13 5 -11 0 -14 -3 -6 -6z"/>
<path d="M2434 2405 c-1 -15 2 -25 8 -23 5 2 9 7 9 11 -1 4 -1 14 -1 22 0 26
-15 16 -16 -10z"/>
<path d="M1520 2410 c0 -5 5 -10 10 -10 6 0 10 5 10 10 0 6 -4 10 -10 10 -5 0
-10 -4 -10 -10z"/>
<path d="M2376 2395 c-13 -20 -14 -25 -2 -25 7 0 16 10 19 22 9 31 2 33 -17 3z"/>
<path d="M3284 2405 c-3 -8 -4 -20 -1 -27 3 -7 6 -3 6 9 1 12 9 24 19 26 16 4
16 5 -1 6 -10 0 -20 -6 -23 -14z"/>
<path d="M7435 2410 c-3 -5 -1 -10 4 -10 6 0 11 5 11 10 0 6 -2 10 -4 10 -3 0
-8 -4 -11 -10z"/>
<path d="M3565 2400 c-3 -5 -2 -10 4 -10 5 0 13 5 16 10 3 6 2 10 -4 10 -5 0
-13 -4 -16 -10z"/>
<path d="M3630 2390 c-9 -6 -10 -10 -3 -10 6 0 15 5 18 10 8 12 4 12 -15 0z"/>
<path d="M3520 2381 c0 -6 4 -13 10 -16 6 -3 7 1 4 9 -7 18 -14 21 -14 7z"/>
<path d="M105 2370 c-3 -5 -1 -10 4 -10 6 0 11 -7 11 -15 0 -8 5 -15 10 -15 6
0 10 7 10 15 0 8 -5 15 -11 15 -5 0 -7 5 -4 10 3 6 2 10 -4 10 -5 0 -13 -4
-16 -10z"/>
<path d="M746 2365 c-3 -8 -1 -15 3 -15 5 0 11 7 15 15 3 8 1 15 -3 15 -5 0
-11 -7 -15 -15z"/>
<path d="M915 2370 c3 -5 11 -10 16 -10 6 0 7 5 4 10 -3 6 -11 10 -16 10 -6 0
-7 -4 -4 -10z"/>
<path d="M1788 2373 c7 -3 16 -2 19 1 4 3 -2 6 -13 5 -11 0 -14 -3 -6 -6z"/>
<path d="M3218 2373 c7 -3 16 -2 19 1 4 3 -2 6 -13 5 -11 0 -14 -3 -6 -6z"/>
<path d="M8582 2373 c-18 -2 -30 -9 -26 -14 3 -5 10 -7 15 -3 5 3 16 0 24 -6
11 -9 15 -9 15 -1 0 13 42 10 53 -4 6 -6 10 -5 14 3 4 9 8 10 18 2 10 -8 15
-8 20 1 6 8 10 7 16 -2 8 -12 10 -12 18 0 6 10 10 10 16 1 6 -9 10 -9 17 1 7
11 11 11 15 1 2 -6 10 -9 16 -5 15 9 34 12 121 18 39 3 72 8 75 10 5 6 -379 4
-427 -2z"/>
<path d="M9075 2370 c4 -6 11 -8 16 -5 14 9 11 15 -7 15 -8 0 -12 -5 -9 -10z"/>
<path d="M2180 2360 c-9 -6 -10 -10 -3 -10 6 0 15 5 18 10 8 12 4 12 -15 0z"/>
<path d="M7370 2360 c-8 -5 -12 -12 -9 -15 4 -3 12 1 19 10 14 17 11 19 -10 5z"/>
<path d="M8466 2361 c-17 -6 -17 -8 -4 -14 10 -3 19 0 22 9 3 8 4 14 3 13 -1
0 -11 -4 -21 -8z"/>
<path d="M8518 2363 c7 -3 16 -2 19 1 4 3 -2 6 -13 5 -11 0 -14 -3 -6 -6z"/>
<path d="M800 2350 c20 -13 33 -13 25 0 -3 6 -14 10 -23 10 -15 0 -15 -2 -2
-10z"/>
<path d="M3230 2345 c0 -8 5 -15 10 -15 6 0 10 7 10 15 0 8 -4 15 -10 15 -5 0
-10 -7 -10 -15z"/>
<path d="M3583 2353 c9 -2 25 -2 35 0 9 3 1 5 -18 5 -19 0 -27 -2 -17 -5z"/>
<path d="M7304 2349 c-3 -6 -1 -16 5 -22 8 -8 11 -5 11 11 0 24 -5 28 -16 11z"/>
<path d="M7601 2353 c-2 -21 3 -28 19 -28 8 0 17 -11 20 -25 l6 -25 13 24 c7
13 9 21 3 17 -5 -3 -12 4 -15 15 -4 14 -11 20 -21 16 -8 -3 -17 -1 -20 6 -3 9
-5 9 -5 0z"/>
<path d="M7667 2354 c-4 -4 -4 -10 -1 -15 6 -10 34 0 34 12 0 10 -24 12 -33 3z"/>
<path d="M74 2335 c-3 -8 -3 -19 1 -25 5 -8 1 -10 -11 -8 -11 2 -18 10 -16 17
1 7 -2 10 -8 6 -5 -3 -10 -12 -10 -20 0 -8 -7 -18 -16 -23 -10 -6 -14 -20 -12
-43 3 -34 3 -34 16 -10 8 13 9 20 3 17 -15 -10 -13 5 4 28 13 17 15 17 31 2
16 -16 17 -16 28 6 7 13 8 26 3 29 -5 4 -4 9 2 13 6 4 11 11 11 17 0 14 -20
11 -26 -6z"/>
<path d="M2243 2337 c-9 -14 1 -15 32 -1 l30 13 -28 -2 c-16 -1 -31 -5 -34
-10z"/>
<path d="M2320 2339 c0 -5 5 -7 10 -4 6 3 10 8 10 11 0 2 -4 4 -10 4 -5 0 -10
-5 -10 -11z"/>
<path d="M3326 2335 c-3 -8 -1 -15 3 -15 5 0 11 7 15 15 3 8 1 15 -3 15 -5 0
-11 -7 -15 -15z"/>
<path d="M1573 2333 c9 -2 23 -2 30 0 6 3 -1 5 -18 5 -16 0 -22 -2 -12 -5z"/>
<path d="M1653 2333 c9 -2 23 -2 30 0 6 3 -1 5 -18 5 -16 0 -22 -2 -12 -5z"/>
<path d="M1728 2333 c7 -3 16 -2 19 1 4 3 -2 6 -13 5 -11 0 -14 -3 -6 -6z"/>
<path d="M7035 2329 c-29 -6 -29 -7 -4 -8 15 0 41 -4 59 -8 22 -4 31 -3 27 4
-9 15 -46 20 -82 12z"/>
<path d="M7725 2333 c-16 -3 -33 -8 -38 -12 -6 -6 18 -6 86 -2 4 1 7 6 7 11 0
6 -6 9 -12 9 -7 -1 -26 -4 -43 -6z"/>
<path d="M2270 2320 c-13 -9 -13 -10 0 -10 8 0 22 5 30 10 13 9 13 10 0 10 -8
0 -22 -5 -30 -10z"/>
<path d="M2415 2310 c-17 -18 -17 -20 -1 -20 9 0 19 7 23 15 9 25 -2 27 -22 5z"/>
<path d="M7890 2304 c0 -14 4 -23 9 -20 5 3 7 15 4 26 -7 28 -13 25 -13 -6z"/>
<path d="M7174 2298 l-19 -23 25 20 c14 11 27 21 29 22 2 2 0 3 -6 3 -5 0 -18
-10 -29 -22z"/>
<path d="M7020 2290 c0 -13 18 -22 24 -11 3 5 -1 11 -9 15 -8 3 -15 1 -15 -4z"/>
<path d="M8612 2291 c-11 -6 -10 -10 4 -15 9 -3 19 -4 22 -1 3 3 0 5 -7 5 -7
0 -9 5 -6 10 7 12 4 12 -13 1z"/>
<path d="M410 2280 c0 -5 7 -10 15 -10 8 0 15 5 15 10 0 6 -7 10 -15 10 -8 0
-15 -4 -15 -10z"/>
<path d="M6915 2280 c-3 -5 -1 -10 4 -10 6 0 11 5 11 10 0 6 -2 10 -4 10 -3 0
-8 -4 -11 -10z"/>
<path d="M1590 2240 c0 -22 5 -40 10 -40 6 0 10 18 10 40 0 22 -4 40 -10 40
-5 0 -10 -18 -10 -40z"/>
<path d="M460 2250 c0 -5 5 -10 11 -10 5 0 7 5 4 10 -3 6 -8 10 -11 10 -2 0
-4 -4 -4 -10z"/>
<path d="M788 2253 c7 -3 16 -2 19 1 4 3 -2 6 -13 5 -11 0 -14 -3 -6 -6z"/>
<path d="M6978 2249 c-20 -11 -24 -29 -6 -29 6 0 8 3 5 7 -4 3 1 12 11 19 20
16 14 18 -10 3z"/>
<path d="M6908 2243 c6 -2 18 -2 25 0 6 3 1 5 -13 5 -14 0 -19 -2 -12 -5z"/>
<path d="M46 2221 c-14 -5 -16 -10 -7 -15 15 -9 41 -1 41 14 0 11 -7 12 -34 1z"/>
<path d="M455 2220 c-3 -5 -1 -10 4 -10 6 0 11 5 11 10 0 6 -2 10 -4 10 -3 0
-8 -4 -11 -10z"/>
<path d="M8026 2218 c5 -8 2 -9 -9 -5 -10 3 -17 2 -17 -4 0 -6 16 -9 38 -7 35
3 48 19 20 26 -9 2 -8 0 2 -7 13 -9 13 -11 -2 -11 -10 0 -18 5 -18 10 0 6 -5
10 -11 10 -5 0 -7 -5 -3 -12z"/>
<path d="M375 2210 c-3 -5 1 -10 9 -10 9 0 16 5 16 10 0 6 -4 10 -9 10 -6 0
-13 -4 -16 -10z"/>
<path d="M1035 2199 c-4 -6 -5 -12 -2 -15 2 -3 7 2 10 11 7 17 1 20 -8 4z"/>
<path d="M2260 2195 c0 -8 2 -15 4 -15 2 0 6 7 10 15 3 8 1 15 -4 15 -6 0 -10
-7 -10 -15z"/>
<path d="M3565 2181 c3 -5 -4 -11 -15 -13 -15 -2 -17 -6 -9 -18 8 -11 12 -12
16 -2 2 6 11 12 19 12 8 0 14 7 14 15 0 8 -7 15 -16 15 -8 0 -13 -4 -9 -9z"/>
<path d="M55 2170 c-3 -6 1 -7 9 -4 18 7 21 14 7 14 -6 0 -13 -4 -16 -10z"/>
<path d="M586 2163 c-25 -7 -49 -30 -37 -37 5 -3 14 1 21 9 7 8 18 15 26 15 7
0 16 5 19 10 6 10 2 11 -29 3z"/>
<path d="M1000 2161 c0 -6 5 -13 12 -17 7 -5 4 -10 -10 -15 -30 -11 -27 -25 5
-23 16 0 29 8 34 20 12 31 10 36 -12 29 -15 -5 -19 -4 -15 4 4 6 2 11 -3 11
-6 0 -11 -4 -11 -9z"/>
<path d="M1417 2136 c-4 -10 -5 -21 -2 -24 9 -9 17 6 13 25 -3 17 -4 17 -11
-1z"/>
<path d="M1350 2125 c0 -8 5 -15 10 -15 6 0 10 7 10 15 0 8 -4 15 -10 15 -5 0
-10 -7 -10 -15z"/>
<path d="M1060 2120 c-13 -8 -13 -10 2 -10 9 0 20 5 23 10 8 13 -5 13 -25 0z"/>
<path d="M7428 2093 c6 -2 18 -2 25 0 6 3 1 5 -13 5 -14 0 -19 -2 -12 -5z"/>
<path d="M576 2075 c-3 -8 -1 -15 3 -15 5 0 11 7 15 15 3 8 1 15 -3 15 -5 0
-11 -7 -15 -15z"/>
<path d="M3558 2063 c6 -2 18 -2 25 0 6 3 1 5 -13 5 -14 0 -19 -2 -12 -5z"/>
<path d="M6878 2043 c12 -2 32 -2 45 0 12 2 2 4 -23 4 -25 0 -35 -2 -22 -4z"/>
<path d="M6975 2040 c3 -5 8 -10 11 -10 2 0 4 5 4 10 0 6 -5 10 -11 10 -5 0
-7 -4 -4 -10z"/>
<path d="M7038 2043 c12 -2 30 -2 40 0 9 3 -1 5 -23 4 -22 0 -30 -2 -17 -4z"/>
<path d="M7168 2043 c7 -3 16 -2 19 1 4 3 -2 6 -13 5 -11 0 -14 -3 -6 -6z"/>
<path d="M7218 2043 c7 -3 16 -2 19 1 4 3 -2 6 -13 5 -11 0 -14 -3 -6 -6z"/>
<path d="M2807 2032 c-10 -2 -16 -9 -14 -15 6 -18 44 -20 50 -3 6 16 -9 24
-36 18z"/>
<path d="M6687 2033 c18 -2 50 -2 70 0 21 2 7 4 -32 4 -38 0 -55 -2 -38 -4z"/>
<path d="M660 2020 c-8 -5 -11 -12 -7 -16 4 -4 15 0 24 9 18 18 8 23 -17 7z"/>
<path d="M2816 1980 c-11 -3 -15 -9 -10 -13 10 -6 42 9 34 16 -3 3 -14 1 -24
-3z"/>
<path d="M3128 1953 c6 -2 18 -2 25 0 6 3 1 5 -13 5 -14 0 -19 -2 -12 -5z"/>
<path d="M3066 1908 c-3 -13 -6 -25 -6 -28 0 -9 54 -8 70 1 11 6 12 8 1 9 -7
0 -11 6 -7 15 3 8 1 15 -4 15 -6 0 -10 -6 -10 -12 0 -7 -5 -5 -11 5 -14 23
-25 21 -33 -5z"/>
<path d="M2994 1888 c-7 -11 18 -10 36 2 11 7 10 9 -8 7 -13 -1 -26 -5 -28 -9z"/>
<path d="M3040 1862 c0 -4 10 -9 22 -9 18 -2 20 0 8 7 -18 12 -30 13 -30 2z"/>
<path d="M3385 1820 c-3 -6 1 -7 9 -4 18 7 21 14 7 14 -6 0 -13 -4 -16 -10z"/>
<path d="M3419 1794 c-7 -8 -9 -17 -5 -21 3 -3 6 -1 6 5 0 6 12 12 28 14 25 3
25 4 5 10 -14 4 -27 1 -34 -8z"/>
<path d="M3560 1772 c0 -4 4 -13 8 -20 10 -15 45 -5 39 11 -4 12 -47 21 -47 9z"/>
<path d="M7920 1570 c8 -5 31 -9 50 -9 32 1 33 2 10 9 -14 4 -36 8 -50 9 -20
1 -22 -1 -10 -9z"/>
<path d="M8043 1563 c9 -2 23 -2 30 0 6 3 -1 5 -18 5 -16 0 -22 -2 -12 -5z"/>
<path d="M8540 1509 c25 -4 56 -8 70 -8 23 0 23 1 5 9 -11 5 -42 8 -70 8 l-50
-1 45 -8z"/>
<path d="M8675 1449 c49 -12 152 -24 145 -16 -5 6 -39 11 -135 21 -50 5 -50 5
-10 -5z"/>
<path d="M8840 1437 c16 -17 234 -32 224 -16 -3 5 -24 9 -47 8 -23 -1 -73 2
-112 6 -38 4 -68 5 -65 2z"/>
<path d="M9540 1420 c-12 -8 -11 -10 7 -10 12 0 24 -6 26 -12 4 -10 6 -10 6 0
1 7 6 10 11 7 6 -3 10 -2 10 3 0 9 -23 22 -38 22 -4 0 -14 -5 -22 -10z"/>
<path d="M9138 1403 c6 -2 18 -2 25 0 6 3 1 5 -13 5 -14 0 -19 -2 -12 -5z"/>
<path d="M9495 1376 l-40 -13 30 -12 c24 -10 40 -9 85 3 l55 15 -45 -2 c-32
-1 -44 2 -42 11 1 6 1 12 0 11 -2 0 -21 -6 -43 -13z"/>
<path d="M8913 1323 c9 -2 23 -2 30 0 6 3 -1 5 -18 5 -16 0 -22 -2 -12 -5z"/>
<path d="M9788 1323 c7 -3 16 -2 19 1 4 3 -2 6 -13 5 -11 0 -14 -3 -6 -6z"/>
<path d="M7458 1183 c7 -3 16 -2 19 1 4 3 -2 6 -13 5 -11 0 -14 -3 -6 -6z"/>
<path d="M10065 1146 c11 -8 29 -16 40 -16 27 0 7 16 -30 24 -29 7 -29 7 -10
-8z"/>
<path d="M2588 1063 c7 -3 16 -2 19 1 4 3 -2 6 -13 5 -11 0 -14 -3 -6 -6z"/>
<path d="M9795 1060 c3 -5 13 -10 21 -10 8 0 12 5 9 10 -3 6 -13 10 -21 10 -8
0 -12 -4 -9 -10z"/>
<path d="M778 1053 c6 -2 18 -2 25 0 6 3 1 5 -13 5 -14 0 -19 -2 -12 -5z"/>
<path d="M8158 1033 c6 -2 18 -2 25 0 6 3 1 5 -13 5 -14 0 -19 -2 -12 -5z"/>
<path d="M9473 1023 c9 -2 23 -2 30 0 6 3 -1 5 -18 5 -16 0 -22 -2 -12 -5z"/>
<path d="M8050 950 c-9 -6 -10 -10 -3 -10 6 0 15 5 18 10 8 12 4 12 -15 0z"/>
<path d="M9115 940 c3 -5 8 -10 11 -10 2 0 4 5 4 10 0 6 -5 10 -11 10 -5 0 -7
-4 -4 -10z"/>
<path d="M7948 933 c7 -3 16 -2 19 1 4 3 -2 6 -13 5 -11 0 -14 -3 -6 -6z"/>
<path d="M7608 913 c6 -2 18 -2 25 0 6 3 1 5 -13 5 -14 0 -19 -2 -12 -5z"/>
<path d="M9703 773 c9 -2 25 -2 35 0 9 3 1 5 -18 5 -19 0 -27 -2 -17 -5z"/>
<path d="M8130 760 c0 -5 5 -10 10 -10 6 0 10 5 10 10 0 6 -4 10 -10 10 -5 0
-10 -4 -10 -10z"/>
<path d="M8298 763 c17 -2 47 -2 65 0 17 2 3 4 -33 4 -36 0 -50 -2 -32 -4z"/>
<path d="M9115 750 c-4 -6 5 -10 20 -10 15 0 24 4 20 10 -3 6 -12 10 -20 10
-8 0 -17 -4 -20 -10z"/>
<path d="M8008 713 c6 -2 18 -2 25 0 6 3 1 5 -13 5 -14 0 -19 -2 -12 -5z"/>
<path d="M7794 662 c11 -12 19 -13 27 -5 7 7 3 12 -16 15 -25 5 -25 4 -11 -10z"/>
<path d="M8070 640 c20 -13 43 -13 35 0 -3 6 -16 10 -28 10 -18 0 -19 -2 -7
-10z"/>
<path d="M8218 633 c6 -2 18 -2 25 0 6 3 1 5 -13 5 -14 0 -19 -2 -12 -5z"/>
<path d="M8288 633 c6 -2 18 -2 25 0 6 3 1 5 -13 5 -14 0 -19 -2 -12 -5z"/>
<path d="M8800 496 c0 -2 7 -7 16 -10 8 -3 12 -2 9 4 -6 10 -25 14 -25 6z"/>
<path d="M8353 483 c9 -2 25 -2 35 0 9 3 1 5 -18 5 -19 0 -27 -2 -17 -5z"/>
<path d="M9550 480 c-17 -6 -9 -7 25 -3 28 3 52 7 54 9 8 7 -54 2 -79 -6z"/>
<path d="M9018 473 c6 -2 18 -2 25 0 6 3 1 5 -13 5 -14 0 -19 -2 -12 -5z"/>
<path d="M9180 470 c-13 -8 -13 -10 2 -10 9 0 20 5 23 10 8 13 -5 13 -25 0z"/>
<path d="M7788 463 c6 -2 18 -2 25 0 6 3 1 5 -13 5 -14 0 -19 -2 -12 -5z"/>
<path d="M9470 460 c-13 -9 -13 -10 0 -9 8 0 24 4 35 9 l20 9 -20 0 c-11 0
-27 -4 -35 -9z"/>
<path d="M10203 463 c9 -2 23 -2 30 0 6 3 -1 5 -18 5 -16 0 -22 -2 -12 -5z"/>
<path d="M9334 452 c3 -5 20 -7 38 -5 l33 4 -25 -15 c-30 -18 -20 -20 31 -5
52 16 40 29 -27 29 -30 0 -53 -4 -50 -8z"/>
<path d="M9853 453 c9 -2 25 -2 35 0 9 3 1 5 -18 5 -19 0 -27 -2 -17 -5z"/>
<path d="M9038 443 c12 -2 30 -2 40 0 9 3 -1 5 -23 4 -22 0 -30 -2 -17 -4z"/>
<path d="M8808 413 c7 -3 16 -2 19 1 4 3 -2 6 -13 5 -11 0 -14 -3 -6 -6z"/>
<path d="M9088 373 c7 -3 16 -2 19 1 4 3 -2 6 -13 5 -11 0 -14 -3 -6 -6z"/>
<path d="M9408 263 c7 -3 16 -2 19 1 4 3 -2 6 -13 5 -11 0 -14 -3 -6 -6z"/>
<path d="M10115 170 c-14 -6 -4 -9 38 -9 32 -1 57 3 57 9 0 12 -67 12 -95 0z"/>
<path d="M8983 108 c35 -8 52 -7 60 1 8 8 -5 11 -48 10 l-60 -1 48 -10z"/>
<path d="M9128 103 c23 -2 59 -2 80 0 20 2 1 4 -43 4 -44 0 -61 -2 -37 -4z"/>
<path d="M9273 93 c9 -2 23 -2 30 0 6 3 -1 5 -18 5 -16 0 -22 -2 -12 -5z"/>
<path d="M2071 51 c-8 -5 -20 -7 -27 -4 -6 2 -15 -1 -20 -8 -5 -9 -2 -10 9 -6
20 7 23 -8 5 -17 -7 -3 -3 -3 10 0 12 3 22 1 22 -5 0 -15 36 21 36 37 1 14
-15 16 -35 3z"/>
<path d="M1530 39 c0 -11 27 -12 34 -1 2 4 -4 9 -15 9 -10 1 -19 -2 -19 -8z"/>
<path d="M1940 39 c0 -5 5 -7 10 -4 6 3 10 8 10 11 0 2 -4 4 -10 4 -5 0 -10
-5 -10 -11z"/>
<path d="M1870 30 c0 -5 5 -10 11 -10 5 0 7 5 4 10 -3 6 -8 10 -11 10 -2 0 -4
-4 -4 -10z"/>
<path d="M2532 20 c-10 -16 -10 -20 2 -20 7 0 16 9 19 20 3 11 2 20 -2 20 -3
0 -12 -9 -19 -20z"/>
<path d="M3150 20 c-13 -9 -13 -10 0 -10 8 0 22 5 30 10 13 9 13 10 0 10 -8 0
-22 -5 -30 -10z"/>
<path d="M3090 10 c-12 -8 -9 -10 13 -10 16 0 26 4 22 10 -8 12 -16 12 -35 0z"/>
<path d="M3240 10 c0 -5 5 -10 11 -10 5 0 7 5 4 10 -3 6 -8 10 -11 10 -2 0 -4
-4 -4 -10z"/>
<path d="M1843 3 c15 -2 39 -2 55 0 15 2 2 4 -28 4 -30 0 -43 -2 -27 -4z"/>
<path d="M1948 3 c12 -2 30 -2 40 0 9 3 -1 5 -23 4 -22 0 -30 -2 -17 -4z"/>
<path d="M2323 3 c9 -2 23 -2 30 0 6 3 -1 5 -18 5 -16 0 -22 -2 -12 -5z"/>
<path d="M2728 3 c7 -3 16 -2 19 1 4 3 -2 6 -13 5 -11 0 -14 -3 -6 -6z"/>
<path d="M2768 3 c6 -2 18 -2 25 0 6 3 1 5 -13 5 -14 0 -19 -2 -12 -5z"/>
</g>
</svg>
